<?xml version="1.0" encoding="utf-8" ?>
<svg xmlns="http://www.w3.org/2000/svg" xmlns:xlink="http://www.w3.org/1999/xlink" width="24" height="24" viewBox="0 0 24 24">
	<defs>
		<clipPath id="clipPath6624885968">
			<path d="M0 0L24 0L24 24L0 24L0 0Z" fill-rule="nonzero" transform="matrix(1 0 0 1 0 0)"/>
		</clipPath>
	</defs>
	<g clip-path="url(#clipPath6624885968)">
		<rect width="18" height="10" rx="1" ry="1" stroke-width="2" stroke-linejoin="round" transform="matrix(0 -1 1 0 7 22)" stroke="rgb(51, 51, 51)" fill="transparent"/>
		<path d="M0 2L0 1C0 0.447715 0.4477 0 1 0L3 0C3.5523 0 4 0.447715 4 1L4 2L0 2Z" fill-rule="nonzero" transform="matrix(1 0 0 1 10 1)" fill="rgb(51, 51, 51)"/>
		<path d="M2.94721 -0.894427C2.45324 -1.14141 1.85256 -0.941188 1.60557 -0.447213L-0.894427 4.55279Q-0.938474 4.64088 -0.964488 4.73587Q-0.990502 4.83087 -0.997484 4.92911Q-1.00447 5.02735 -0.992147 5.12507Q-0.979829 5.22279 -0.948683 5.31623Q-0.917538 5.40966 -0.868762 5.49523Q-0.819986 5.5808 -0.755454 5.6552Q-0.690922 5.72961 -0.613115 5.78999Q-0.535307 5.85038 -0.447214 5.89443Q-0.287081 5.97449 -0.109117 5.99403Q0.0688477 6.01356 0.242536 5.97014L2.13323 5.49747L0.605573 8.55279C0.358586 9.04676 0.558812 9.64744 1.05279 9.89443C1.54676 10.1414 2.14744 9.94119 2.39443 9.44721L4.89443 4.44721Q4.97449 4.28708 4.99403 4.10912Q5.01356 3.93115 4.97014 3.75746Q4.94625 3.66191 4.90418 3.57286Q4.86211 3.4838 4.80348 3.40467Q4.74484 3.32553 4.6719 3.25936Q4.59895 3.19318 4.5145 3.14251Q4.43004 3.09183 4.33732 3.05861Q4.2446 3.02539 4.14718 3.01089Q4.04976 2.99639 3.95139 3.00118Q3.85301 3.00597 3.75746 3.02986L1.86677 3.50253L3.39443 0.447214C3.64141 -0.0467609 3.44119 -0.64744 2.94721 -0.894427Z" fill-rule="evenodd" transform="matrix(1 0 0 1 10 9)" fill="rgb(51, 51, 51)"/>
	</g>
</svg>
