<?xml version="1.0" encoding="utf-8" ?>
<svg xmlns="http://www.w3.org/2000/svg" xmlns:xlink="http://www.w3.org/1999/xlink" width="24" height="24" viewBox="0 0 24 24">
	<defs>
		<clipPath id="clipPath1261524857">
			<path d="M0 0L24 0L24 24L0 24L0 0Z" fill-rule="nonzero" transform="matrix(1 0 0 1 0 0)"/>
		</clipPath>
	</defs>
	<g clip-path="url(#clipPath1261524857)">
		<path d="M-0.707107 -0.707107C-1.09763 -0.316586 -1.09763 0.316586 -0.707107 0.707107L2.79289 4.20711C3.18341 4.59763 3.81659 4.59763 4.20711 4.20711C4.59763 3.81659 4.59763 3.18341 4.20711 2.79289L0.707107 -0.707107C0.316586 -1.09763 -0.316586 -1.09763 -0.707107 -0.707107ZM7.79289 7.79289C7.40237 8.18341 7.40237 8.81659 7.79289 9.20711L11.2929 12.7071C11.6834 13.0976 12.3166 13.0976 12.7071 12.7071C13.0976 12.3166 13.0976 11.6834 12.7071 11.2929L9.20711 7.79289C8.81659 7.40237 8.18341 7.40237 7.79289 7.79289Z" fill-rule="evenodd" transform="matrix(1 0 0 1 6 6)" fill="rgb(255, 103, 31)"/>
		<path d="M12.7071 -0.707107C12.3166 -1.09763 11.6834 -1.09763 11.2929 -0.707107L7.79289 2.79289C7.40237 3.18341 7.40237 3.81659 7.79289 4.20711C8.18341 4.59763 8.81659 4.59763 9.20711 4.20711L12.7071 0.707107C13.0976 0.316586 13.0976 -0.316586 12.7071 -0.707107ZM4.20711 7.79289C3.81659 7.40237 3.18341 7.40237 2.79289 7.79289L-0.707107 11.2929C-1.09763 11.6834 -1.09763 12.3166 -0.707107 12.7071C-0.316586 13.0976 0.316586 13.0976 0.707107 12.7071L4.20711 9.20711C4.59763 8.81659 4.59763 8.18341 4.20711 7.79289Z" fill-rule="evenodd" transform="matrix(1 0 0 1 6 6)" fill="rgb(255, 103, 31)"/>
		<rect width="5" height="5" stroke-linejoin="round" stroke-width="2" transform="matrix(1 0 0 1 9.5 9.5)" stroke="rgb(255, 103, 31)" fill="transparent"/>
		<path d="M4.88893 5.57868Q4.25837 6 3.5 6C2.94772 6 2.5 6.44772 2.5 7C2.5 7.55228 2.94772 8 3.5 8Q4.86506 8 6.00007 7.24162Q7.13503 6.48321 7.65746 5.22213Q8.17986 3.96091 7.91353 2.6221Q7.64722 1.28325 6.68194 0.318008Q5.71678 -0.647221 4.37788 -0.913532Q3.03909 -1.17985 1.77792 -0.657455Q0.516819 -0.135102 -0.241608 0.999918Q-1 2.13488 -1 3.5C-1 4.05228 -0.55228 4.5 0 4.5C0.55228 4.5 1 4.05228 1 3.5Q1 2.7416 1.42131 2.11109Q1.84267 1.4805 2.54328 1.1903Q3.24394 0.900085 3.98772 1.04804Q4.73153 1.19599 5.26776 1.73225Q5.80402 2.26849 5.95197 3.0123Q6.09992 3.75608 5.80974 4.45667Q5.51947 5.15733 4.88893 5.57868Z" fill-rule="evenodd" transform="matrix(1 0 0 1 14.5 2.5)" fill="rgb(255, 103, 31)"/>
		<path d="M6.00007 -0.241621Q4.86506 -1 3.5 -1C2.94772 -1 2.5 -0.55228 2.5 0C2.5 0.55228 2.94772 1 3.5 1Q4.25838 1 4.88893 1.42132Q5.51947 1.84267 5.80974 2.54333Q6.09992 3.24392 5.95197 3.9877Q5.80401 4.73153 5.26778 5.26771Q4.73153 5.80401 3.98771 5.95196Q3.24392 6.09992 2.54327 5.80972Q1.84267 5.51947 1.4213 4.8889Q1 4.25838 1 3.5C1 2.94772 0.55228 2.5 0 2.5C-0.55228 2.5 -1 2.94772 -1 3.5Q-1 4.86506 -0.2416 6.0001Q0.516794 7.13503 1.77793 7.65748Q3.03909 8.17986 4.37789 7.91354Q5.7168 7.64721 6.68192 6.68199Q7.64721 5.7168 7.91353 4.3779Q8.17986 3.03909 7.65746 1.77787Q7.13503 0.516793 6.00007 -0.241621Z" fill-rule="evenodd" transform="matrix(1 0 0 1 14.5 14.5)" fill="rgb(255, 103, 31)"/>
		<path d="M2.11109 1.42131Q2.7416 1 3.5 1C4.05228 1 4.5 0.55228 4.5 0C4.5 -0.55228 4.05228 -1 3.5 -1Q2.13489 -1 0.999921 -0.24161Q-0.135102 0.51682 -0.657458 1.77792Q-1.17985 3.03909 -0.913528 4.3779Q-0.647221 5.71678 0.318048 6.68198Q1.28325 7.64722 2.62211 7.91354Q3.96091 8.17986 5.22207 7.65749Q6.48321 7.13503 7.2416 6.0001Q8 4.86506 8 3.5C8 2.94772 7.55228 2.5 7 2.5C6.44772 2.5 6 2.94772 6 3.5Q6 4.25837 5.5787 4.8889Q5.15733 5.51947 4.45673 5.80972Q3.75608 6.09992 3.01229 5.95196Q2.26849 5.80402 1.73221 5.26772Q1.19599 4.73153 1.04804 3.9877Q0.900085 3.24394 1.19031 2.54328Q1.4805 1.84267 2.11109 1.42131Z" fill-rule="evenodd" transform="matrix(1 0 0 1 2.5 14.5)" fill="rgb(255, 103, 31)"/>
		<path d="M0.999921 7.24161Q2.13489 8 3.5 8C4.05228 8 4.5 7.55228 4.5 7C4.5 6.44772 4.05228 6 3.5 6Q2.7416 6 2.11109 5.57869Q1.4805 5.15733 1.19031 4.45672Q0.900085 3.75606 1.04804 3.0123Q1.19599 2.26848 1.73223 1.73224Q2.26848 1.19599 3.01228 1.04804Q3.75606 0.900085 4.45672 1.1903Q5.15733 1.4805 5.57869 2.11109Q6 2.7416 6 3.5C6 4.05228 6.44772 4.5 7 4.5C7.55228 4.5 8 4.05228 8 3.5Q8 2.13488 7.24161 0.999918Q6.48318 -0.135101 5.22208 -0.657455Q3.96091 -1.17985 2.62212 -0.913532Q1.28327 -0.647231 0.318027 0.318019Q-0.647231 1.28327 -0.913528 2.6221Q-1.17985 3.96091 -0.657458 5.22208Q-0.135101 6.48318 0.999921 7.24161Z" fill-rule="evenodd" transform="matrix(1 0 0 1 2.5 2.5)" fill="rgb(255, 103, 31)"/>
	</g>
</svg>
