<?xml version="1.0" encoding="utf-8" ?>
<svg xmlns="http://www.w3.org/2000/svg" xmlns:xlink="http://www.w3.org/1999/xlink" width="24" height="24" viewBox="0 0 24 24">
	<defs>
		<clipPath id="clipPath3346191341">
			<path d="M0 0L24 0L24 24L0 24L0 0Z" fill-rule="nonzero" transform="matrix(1 0 0 1 0 0)"/>
		</clipPath>
	</defs>
	<g clip-path="url(#clipPath3346191341)">
		<path d="M6.87531 19.2191Q7.31198 18.8698 7.98525 18.2339Q9.3432 16.9514 10.4732 15.5577Q12.0389 13.6267 12.9253 11.7654Q14 9.50843 14 7.5Q14 6.17691 13.4896 4.97021Q12.9963 3.80391 12.0962 2.9038Q11.1961 2.00369 10.0298 1.51039Q8.82309 1 7.5 1Q6.17691 1 4.97021 1.51039Q3.80391 2.00369 2.9038 2.9038Q2.00369 3.80391 1.51039 4.97021Q1 6.17691 1 7.5Q1 9.50843 2.07474 11.7654Q2.96108 13.6267 4.52676 15.5577Q5.6568 16.9514 7.01475 18.2339Q7.68802 18.8698 8.12469 19.2191L7.5 20L6.87531 19.2191ZM8.12469 20.7809Q8.05868 20.8337 7.98473 20.8747Q7.91078 20.9156 7.83101 20.9436Q7.75123 20.9716 7.66789 20.9858Q7.58454 21 7.5 21Q7.41546 21 7.33211 20.9858Q7.24877 20.9716 7.16899 20.9436Q7.08922 20.9156 7.01527 20.8747Q6.94132 20.8337 6.87531 20.7809Q6.37449 20.3802 5.6415 19.688Q4.18695 18.3142 2.97324 16.8173Q1.25767 14.7014 0.269014 12.6252Q-1 9.96032 -1 7.5Q-1 5.77134 -0.33162 4.19111Q0.31364 2.66553 1.48959 1.48959Q2.66553 0.31364 4.1911 -0.33162Q5.77134 -1 7.5 -1Q9.22866 -1 10.8089 -0.33162Q12.3345 0.313639 13.5104 1.48959Q14.6864 2.66553 15.3316 4.1911Q16 5.77134 16 7.5Q16 9.96032 14.731 12.6252Q13.7423 14.7014 12.0268 16.8173Q10.813 18.3142 9.3585 19.688Q8.62551 20.3802 8.12469 20.7809Z" fill-rule="nonzero" transform="matrix(1 0 0 1 4.5 2)" fill="rgb(51, 51, 51)"/>
		<path d="M3 5Q3.82842 5 4.41421 4.41421Q5 3.82842 5 3Q5 2.17158 4.41421 1.58579Q3.82842 1 3 1Q2.17158 1 1.58579 1.58579Q1 2.17158 1 3Q1 3.82842 1.58579 4.41421Q2.17158 5 3 5ZM3 7Q2.18687 7 1.44271 6.68525Q0.724704 6.38155 0.171575 5.82843Q-0.381555 5.2753 -0.685249 4.55729Q-1 3.81313 -1 3Q-1 2.18687 -0.685249 1.44271Q-0.381555 0.724704 0.171574 0.171575Q0.724704 -0.381555 1.44271 -0.685249Q2.18687 -1 3 -1Q3.81313 -1 4.55729 -0.685249Q5.2753 -0.381555 5.82843 0.171574Q6.38155 0.724704 6.68525 1.44271Q7 2.18687 7 3Q7 3.81313 6.68525 4.55729Q6.38155 5.2753 5.82843 5.82843Q5.2753 6.38156 4.55729 6.68525Q3.81313 7 3 7Z" fill-rule="nonzero" transform="matrix(1 0 0 1 9 6.5)" fill="rgb(51, 51, 51)"/>
	</g>
</svg>
