<?xml version="1.0" encoding="utf-8" ?>
<svg xmlns="http://www.w3.org/2000/svg" xmlns:xlink="http://www.w3.org/1999/xlink" width="24" height="24" viewBox="0 0 24 24">
	<defs>
		<clipPath id="clipPath4111593610">
			<path d="M0 0L24 0L24 24L0 24L0 0Z" fill-rule="nonzero" transform="matrix(1 0 0 1 -0 -0)"/>
		</clipPath>
	</defs>
	<g clip-path="url(#clipPath4111593610)">
		<path d="M12 11.25L12 13.125Q12 14.2123 11.2312 14.9812Q10.4623 15.75 9.375 15.75L1.875 15.75Q0.787689 15.75 0.0188438 14.9812Q-0.75 14.2123 -0.75 13.125L-0.75 1.875Q-0.75 0.787689 0.0188447 0.0188447Q0.78769 -0.75 1.875 -0.75L9 -0.75Q9.51827 -0.75 10.046 -0.557025Q10.5551 -0.370851 10.9759 -0.0411681Q11.4291 0.31392 11.6929 0.769042Q12 1.29878 12 1.875L12 3.75C12 4.16421 11.6642 4.5 11.25 4.5C10.8358 4.5 10.5 4.16421 10.5 3.75L10.5 1.875Q10.5 1.49157 10.0507 1.13957Q9.8169 0.95635 9.53082 0.851737Q9.25261 0.75 9 0.75L1.875 0.75Q1.40901 0.75 1.0795 1.0795Q0.75 1.40901 0.75 1.875L0.75 13.125Q0.75 13.591 1.0795 13.9205Q1.40901 14.25 1.875 14.25L9.375 14.25Q9.84099 14.25 10.1705 13.9205Q10.5 13.591 10.5 13.125L10.5 11.25C10.5 10.8358 10.8358 10.5 11.25 10.5C11.6642 10.5 12 10.8358 12 11.25ZM14.7803 3.21967C14.4874 2.92678 14.0126 2.92678 13.7197 3.21967C13.4268 3.51256 13.4268 3.98744 13.7197 4.28033L16.1893 6.75L5.25 6.75C4.83579 6.75 4.5 7.08579 4.5 7.5C4.5 7.91421 4.83579 8.25 5.25 8.25L16.1893 8.25L13.7197 10.7197C13.4268 11.0126 13.4268 11.4874 13.7197 11.7803C14.0126 12.0732 14.4874 12.0732 14.7803 11.7803L18.5303 8.03033Q18.5826 7.9781 18.6236 7.91668Q18.6646 7.85526 18.6929 7.78701Q18.7212 7.71877 18.7356 7.64632Q18.75 7.57387 18.75 7.5Q18.75 7.42613 18.7356 7.35368Q18.7212 7.28123 18.6929 7.21299Q18.6646 7.14474 18.6236 7.08332Q18.5826 7.0219 18.5303 6.96967L14.7803 3.21967Z" fill-rule="evenodd" transform="matrix(1 0 0 1 3 4.5)" fill="rgb(255, 59, 48)"/>
	</g>
</svg>
