<svg width="211" height="55" viewBox="0 0 211 55" fill="none" xmlns="http://www.w3.org/2000/svg">
<path d="M54.3166 27.1553V28.6798V29.023V29.3106V29.5641V29.793V30.0032V30.2011V30.3866V30.5629V30.7299V30.8876V31.0391V31.1844V31.3267V31.4627V31.5957V31.7256V31.8492V31.9698V32.0873V32.2048V32.3192V32.4306V32.5388V32.6439V32.7491V32.8511V32.9531V33.0521V33.151V33.2469V33.3428V33.4355V33.5283V33.618V33.7076V33.7942V33.8808V33.9674V34.0509V34.1343V34.2178V34.2982V34.3786V34.459V34.5363V34.6136L54.3135 34.6909V34.7682L54.3104 34.8424V34.9167L54.3073 34.9909V35.0651L54.3042 35.1393V35.2104L54.3011 35.2815V35.3527L54.298 35.4238V35.4918L54.2949 35.5598V35.6279L54.2918 35.6959V35.7639L54.2887 35.8319V35.8969L54.2856 35.9618V36.0267L54.2825 36.0917V36.1566L54.2764 36.2215V36.2834L54.2702 36.3452V36.4071L54.264 36.4689V36.5308L54.2578 36.5926V36.6545L54.2516 36.7163V36.775L54.2454 36.8338V36.8925L54.2393 36.9513V37.0101L54.2331 37.0688V37.1276L54.2269 37.1863V37.242L54.2207 37.2976V37.3533L54.2145 37.4089V37.4646L54.2083 37.5203V37.5759L54.2021 37.6316V37.6872L54.196 37.7429V37.7955L54.1898 37.848V37.9006L54.1836 37.9532V38.0057L54.1774 38.0583V38.1109L54.1712 38.1634V38.216L54.165 38.2686V38.3211L54.1589 38.3737V38.4232L54.1527 38.4726V38.5221L54.1465 38.5716V38.6211L54.1403 38.6705V38.72L54.131 38.7695V38.819L54.1218 38.8684V38.9179L54.1125 38.9674V39.0169L54.1032 39.0663V39.1127L54.0939 39.1591V39.2055L54.0846 39.2519V39.2983L54.0754 39.3446V39.391L54.0661 39.4374V39.4838L54.0568 39.5302V39.5765L54.0475 39.6229V39.6693L54.0383 39.7157V39.7621L54.029 39.8085L54.0228 39.8517L54.0166 39.895L54.0104 39.9383L54.0043 39.9816L53.9981 40.0249L53.9919 40.0682L53.9857 40.1115L53.9795 40.1548L53.9733 40.1981L53.9672 40.2414L53.961 40.2846L53.9548 40.3279L53.9486 40.3712L53.9424 40.4145L53.9362 40.4578L53.93 40.5011L53.9239 40.5444L53.9177 40.5877L53.9115 40.631L53.9053 40.6712L53.8991 40.7114L53.8929 40.7516L53.8868 40.7918L53.8806 40.832L53.8744 40.8722L53.8682 40.9124L53.862 40.9525L53.8558 40.9927L53.8497 41.0329L53.8435 41.0731L53.8373 41.1133L53.8311 41.1535L53.8249 41.1937L53.8187 41.2339L53.8125 41.2741L53.8064 41.3143L53.8002 41.3545L53.794 41.3947L53.7878 41.4349L53.7816 41.4751L53.7754 41.5153L53.7693 41.5555L53.7631 41.5926L53.7569 41.6297L53.7507 41.6668L53.7445 41.7039L53.7383 41.7411L53.7322 41.7782L53.726 41.8153L53.7198 41.8524L53.7136 41.8895L53.7074 41.9266L53.7012 41.9637L53.695 42.0008L53.6889 42.0379L53.6827 42.075L53.6765 42.1121L53.6703 42.1492L53.6641 42.1863L53.6579 42.2234L53.6518 42.2605L53.6456 42.2976L53.6394 42.3347L53.6332 42.3719L53.627 42.409L53.6208 42.4461L53.6147 42.4832L53.6085 42.5203L53.6023 42.5574L53.5961 42.5945L53.5899 42.6285L53.5837 42.6625L53.5775 42.6965L53.5714 42.7305L53.5652 42.7646L53.559 42.7986L53.5528 42.8326L53.5466 42.8666L53.5404 42.9006L53.5343 42.9346L53.5281 42.9686L53.5219 43.0027L53.5157 43.0367L53.5095 43.0707L53.5033 43.1047L53.4972 43.1387L53.491 43.1727L53.4848 43.2067L53.4786 43.2407L53.4693 43.2748L53.46 43.3088L53.4508 43.3428L53.4415 43.3768L53.4322 43.4108L53.4229 43.4448L53.4137 43.4788L53.4044 43.5129L53.3951 43.5469L53.3858 43.5809L53.3766 43.6149L53.3673 43.6489L53.358 43.6829L53.3487 43.7169L53.3395 43.751L53.3302 43.7819L53.3209 43.8128L53.3116 43.8437L53.3023 43.8746L53.2931 43.9056L53.2838 43.9365L53.2745 43.9674L53.2652 43.9983L53.256 44.0293L53.2467 44.0602L53.2374 44.0911L53.2281 44.122L53.2189 44.1529L53.2096 44.1839L53.2003 44.2148L53.191 44.2457L53.1818 44.2766L53.1725 44.3075L53.1632 44.3385L53.1539 44.3694L53.1447 44.4003L53.1354 44.4312L53.1261 44.4622L53.1168 44.4931L53.1076 44.524L53.0983 44.5549L53.089 44.5858L53.0797 44.6168L53.0704 44.6477L53.0612 44.6786L53.0519 44.7095L53.0426 44.7404L53.0333 44.7714L53.0241 44.8023L53.0148 44.8332L53.0055 44.8641L52.9962 44.8951L52.987 44.926L52.9777 44.9569L52.9684 44.9878L52.9591 45.0156L52.9499 45.0435L52.9406 45.0713L52.9313 45.0991L52.922 45.127L52.9128 45.1548L52.9035 45.1826L52.8942 45.2105L52.8849 45.2383L52.8756 45.2661L52.8664 45.2939L52.8571 45.3218L52.8478 45.3496L52.8385 45.3774L52.8293 45.4053L52.82 45.4331L52.8107 45.4609L52.8014 45.4887L52.7922 45.5166L52.7829 45.5444L52.7736 45.5722L52.7643 45.6001L52.7551 45.6279L52.7458 45.6557L52.7365 45.6836L52.7272 45.7114L52.7179 45.7392L52.7087 45.767L52.6994 45.7949L52.6901 45.8227L52.6808 45.8505L52.6716 45.8784L52.6623 45.9062L52.653 45.934L52.6406 45.9619L52.6283 45.9897L52.6159 46.0175L52.6035 46.0453L52.5912 46.0732L52.5788 46.101L52.5664 46.1288L52.5541 46.1567L52.5417 46.1845L52.5293 46.2123L52.517 46.2401L52.5046 46.268L52.4922 46.2958L52.4799 46.3236L52.4675 46.3484L52.4551 46.3731L52.4427 46.3978L52.4304 46.4226L52.418 46.4473L52.4056 46.4721L52.3933 46.4968L52.3809 46.5215L52.3685 46.5463L52.3562 46.571L52.3438 46.5957L52.3314 46.6205L52.3191 46.6452L52.3067 46.67L52.2943 46.6947L52.282 46.7194L52.2696 46.7442L52.2572 46.7689L52.2449 46.7936L52.2325 46.8184L52.2201 46.8431L52.2078 46.8679L52.1954 46.8926L52.183 46.9173L52.1707 46.9421L52.1583 46.9668L52.1459 46.9915L52.1335 47.0163L52.1212 47.041L52.1088 47.0658L52.0964 47.0905L52.0841 47.1152L52.0717 47.14L52.0593 47.1647L52.047 47.1894L52.0346 47.2142L52.0222 47.2389L52.0099 47.2636L51.9975 47.2884L51.9851 47.3131L51.9728 47.3379L51.9604 47.3626L51.948 47.3873L51.9356 47.4121L51.9233 47.4368L51.9109 47.4615L51.8985 47.4863L51.8862 47.511L51.8738 47.5358L51.8614 47.5605L51.8491 47.5852L51.8367 47.61L51.8243 47.6347L51.812 47.6594L51.7996 47.6842L51.7872 47.7089L51.7749 47.7306L51.7625 47.7522L51.7501 47.7739L51.7378 47.7955L51.7254 47.8171L51.713 47.8388L51.7006 47.8604L51.6883 47.8821L51.6759 47.9037L51.6635 47.9254L51.6512 47.947L51.6357 47.9687L51.6233 47.9903L51.6079 48.012L51.5924 48.0336L51.577 48.0552L51.5615 48.0769L51.546 48.0985L51.5306 48.1202L51.5151 48.1418L51.4997 48.1635L51.4842 48.1851L51.4687 48.2068L51.4533 48.2284L51.4378 48.25L51.4224 48.2717L51.4069 48.2933L51.3914 48.315L51.376 48.3366L51.3605 48.3583L51.3451 48.3799L51.3296 48.4016L51.3141 48.4232L51.2987 48.4449L51.2832 48.4665L51.2678 48.4881L51.2523 48.5098L51.2368 48.5314L51.2214 48.5531L51.2059 48.5747L51.1905 48.5964L51.175 48.618L51.1595 48.6397L51.1441 48.6613L51.1286 48.6829L51.1132 48.7046L51.0977 48.7262L51.0822 48.7479L51.0668 48.7695L51.0513 48.7912L51.0359 48.8128L51.0204 48.8345L51.0049 48.8561L50.9895 48.8778L50.974 48.8994L50.9585 48.921L50.9431 48.9427L50.9276 48.9643L50.9122 48.986L50.8967 49.0076L50.8812 49.0293L50.8658 49.0509L50.8503 49.0726L50.8349 49.0942L50.8194 49.1128L50.8039 49.1313L50.7885 49.1499L50.773 49.1684L50.7576 49.187L50.7421 49.2055L50.7266 49.2241L50.7112 49.2426L50.6957 49.2612L50.6803 49.2797L50.6648 49.2983L50.6493 49.3168L50.6339 49.3354L50.6184 49.3539L50.603 49.3725L50.5875 49.3911L50.572 49.4096L50.5566 49.4282L50.5411 49.4467L50.5257 49.4653L50.5102 49.4838L50.4947 49.5024L50.4793 49.5209L50.4638 49.5395L50.4484 49.558L50.4298 49.5766L50.4113 49.5951L50.3927 49.6137L50.3741 49.6322L50.3556 49.6508L50.337 49.6693L50.3185 49.6879L50.2999 49.7065L50.2814 49.725L50.2628 49.7436L50.2443 49.7621L50.2257 49.7807L50.2072 49.7992L50.1886 49.8178L50.1701 49.8363L50.1515 49.8549L50.133 49.8734L50.1144 49.892L50.0959 49.9105L50.0773 49.9291L50.0588 49.9476L50.0402 49.9662L50.0216 49.9847L50.0031 50.0033L49.9845 50.0219L49.966 50.0404L49.9474 50.059L49.9289 50.0775L49.9103 50.0961L49.8918 50.1146L49.8732 50.1332L49.8547 50.1517L49.8361 50.1703L49.8176 50.1888L49.799 50.2074L49.7805 50.2259L49.7619 50.2445L49.7434 50.263L49.7248 50.2816L49.7063 50.3002L49.6877 50.3187L49.6691 50.3373L49.6506 50.3558L49.632 50.3744L49.6135 50.3929L49.5949 50.4115L49.5764 50.43L49.5578 50.4486L49.5393 50.464L49.5207 50.4795L49.5022 50.495L49.4836 50.5104L49.4651 50.5259L49.4465 50.5413L49.428 50.5568L49.4094 50.5723L49.3909 50.5877L49.3723 50.6032L49.3538 50.6186L49.3352 50.6341L49.3167 50.6496L49.2981 50.665L49.2795 50.6805L49.261 50.6959L49.2424 50.7114L49.2239 50.7269L49.2053 50.7423L49.1868 50.7578L49.1682 50.7733L49.1497 50.7887L49.1311 50.8042L49.1126 50.8196L49.094 50.8351L49.0724 50.8506L49.0507 50.866L49.0291 50.8815L49.0074 50.8969L48.9858 50.9124L48.9641 50.9279L48.9425 50.9433L48.9209 50.9588L48.8992 50.9742L48.8776 50.9897L48.8559 51.0052L48.8343 51.0206L48.8126 51.0361L48.791 51.0515L48.7694 51.067L48.7477 51.0825L48.7261 51.0979L48.7044 51.1134L48.6828 51.1288L48.6611 51.1443L48.6395 51.1598L48.6178 51.1752L48.5962 51.1907L48.5746 51.2062L48.5529 51.2216L48.5313 51.2371L48.5096 51.2525L48.488 51.268L48.4663 51.2835L48.4447 51.2989L48.423 51.3144L48.4014 51.3298L48.3798 51.3453L48.3581 51.3608L48.3365 51.3762L48.3148 51.3917L48.2932 51.4071L48.2715 51.4226L48.2499 51.4381L48.2282 51.4535L48.2066 51.469L48.1849 51.4844L48.1633 51.4999L48.1417 51.5154L48.12 51.5308L48.0984 51.5463L48.0767 51.5618L48.0551 51.5772L48.0334 51.5927L48.0118 51.6081L47.9901 51.6236L47.9685 51.636L47.9469 51.6514L47.9252 51.6638L47.9036 51.6762L47.8819 51.6885L47.8603 51.7009L47.8386 51.7133L47.817 51.7256L47.7953 51.738L47.7737 51.7504L47.7521 51.7627L47.7304 51.7751L47.7088 51.7875L47.684 51.7998L47.6593 51.8122L47.6346 51.8246L47.6098 51.837L47.5851 51.8493L47.5604 51.8617L47.5356 51.8741L47.5109 51.8864L47.4861 51.8988L47.4614 51.9112L47.4367 51.9235L47.4119 51.9359L47.3872 51.9483L47.3625 51.9606L47.3377 51.973L47.313 51.9854L47.2882 51.9977L47.2635 52.0101L47.2388 52.0225L47.214 52.0349L47.1893 52.0472L47.1646 52.0596L47.1398 52.072L47.1151 52.0843L47.0903 52.0967L47.0656 52.1091L47.0409 52.1214L47.0161 52.1338L46.9914 52.1462L46.9667 52.1585L46.9419 52.1709L46.9172 52.1833L46.8925 52.1956L46.8677 52.208L46.843 52.2204L46.8182 52.2327L46.7935 52.2451L46.7688 52.2575L46.744 52.2699L46.7193 52.2822L46.6946 52.2946L46.6698 52.307L46.6451 52.3193L46.6204 52.3317L46.5956 52.3441L46.5709 52.3564L46.5461 52.3688L46.5214 52.3812L46.4967 52.3935L46.4719 52.4059L46.4472 52.4183L46.4225 52.4306L46.3977 52.443L46.373 52.4554L46.3482 52.4678L46.3235 52.4801L46.2957 52.4925L46.2679 52.5049L46.24 52.5172L46.2122 52.5296L46.1844 52.542L46.1565 52.5543L46.1287 52.5667L46.1009 52.5791L46.0731 52.5914L46.0452 52.6038L46.0174 52.6162L45.9896 52.6285L45.9617 52.6409L45.9339 52.6533L45.9061 52.6626L45.8783 52.6718L45.8504 52.6811L45.8226 52.6904L45.7948 52.6997L45.7669 52.7089L45.7391 52.7182L45.7113 52.7275L45.6835 52.7368L45.6556 52.746L45.6278 52.7553L45.6 52.7646L45.5721 52.7739L45.5443 52.7832L45.5165 52.7924L45.4887 52.8017L45.4608 52.811L45.433 52.8203L45.4052 52.8295L45.3773 52.8388L45.3495 52.8481L45.3217 52.8574L45.2938 52.8666L45.266 52.8759L45.2382 52.8852L45.2104 52.8945L45.1825 52.9037L45.1547 52.913L45.1269 52.9223L45.099 52.9316L45.0712 52.9409L45.0434 52.9501L45.0156 52.9594L44.9877 52.9687L44.9568 52.978L44.9259 52.9872L44.895 52.9965L44.8641 53.0058L44.8331 53.0151L44.8022 53.0243L44.7713 53.0336L44.7404 53.0429L44.7094 53.0522L44.6785 53.0614L44.6476 53.0707L44.6167 53.08L44.5858 53.0893L44.5548 53.0985L44.5239 53.1078L44.493 53.1171L44.4621 53.1264L44.4312 53.1357L44.4002 53.1449L44.3693 53.1542L44.3384 53.1635L44.3075 53.1728L44.2765 53.182L44.2456 53.1913L44.2147 53.2006L44.1838 53.2099L44.1529 53.2191L44.1219 53.2284L44.091 53.2377L44.0601 53.247L44.0292 53.2563L43.9983 53.2655L43.9673 53.2748L43.9364 53.2841L43.9055 53.2934L43.8746 53.3026L43.8437 53.3119L43.8127 53.3212L43.7818 53.3305L43.7509 53.3397L43.7169 53.349L43.6829 53.3583L43.6489 53.3676L43.6148 53.3768L43.5808 53.3861L43.5468 53.3954L43.5128 53.4047L43.4788 53.414L43.4448 53.4232L43.4108 53.4325L43.3768 53.4418L43.3427 53.4511L43.3087 53.4603L43.2747 53.4696L43.2407 53.4789L43.2067 53.4851L43.1727 53.4913L43.1387 53.4974L43.1047 53.5036L43.0706 53.5098L43.0366 53.516L43.0026 53.5222L42.9686 53.5284L42.9346 53.5345L42.9006 53.5407L42.8666 53.5469L42.8326 53.5531L42.7985 53.5593L42.7645 53.5655L42.7305 53.5717L42.6965 53.5778L42.6625 53.584L42.6285 53.5902L42.5945 53.5964L42.5574 53.6026L42.5202 53.6088L42.4831 53.6149L42.446 53.6211L42.4089 53.6273L42.3718 53.6335L42.3347 53.6397L42.2976 53.6459L42.2605 53.6521L42.2234 53.6582L42.1863 53.6644L42.1492 53.6706L42.1121 53.6768L42.075 53.683L42.0379 53.6892L42.0008 53.6953L41.9637 53.7015L41.9266 53.7077L41.8895 53.7139L41.8524 53.7201L41.8153 53.7263L41.7781 53.7324L41.741 53.7386L41.7039 53.7448L41.6668 53.751L41.6297 53.7572L41.5926 53.7634L41.5555 53.7696L41.5153 53.7757L41.4751 53.7819L41.4349 53.7881L41.3947 53.7943L41.3545 53.8005L41.3143 53.8067L41.2741 53.8128L41.2339 53.819L41.1937 53.8252L41.1535 53.8314L41.1133 53.8376L41.0732 53.8438L41.033 53.8499L40.9928 53.8561L40.9526 53.8623L40.9124 53.8685L40.8722 53.8747L40.832 53.8809L40.7918 53.8871L40.7516 53.8932L40.7114 53.8994L40.6712 53.9056L40.631 53.9118L40.5877 53.918L40.5444 53.9242L40.5011 53.9303L40.4578 53.9365L40.4145 53.9427L40.3713 53.9489L40.328 53.9551L40.2847 53.9613L40.2414 53.9675L40.1981 53.9736L40.1548 53.9798L40.1115 53.986L40.0682 53.9922L40.0249 53.9984L39.9816 54.0046L39.9384 54.0107L39.8951 54.0169L39.8518 54.0231L39.8085 54.0293L39.7621 54.0355H39.7157L39.6693 54.0448H39.623L39.5766 54.054H39.5302L39.4838 54.0633H39.4374L39.3911 54.0726H39.3447L39.2983 54.0819H39.2519L39.2055 54.0911H39.1591L39.1128 54.1004H39.0664L39.0169 54.1097H38.9674L38.918 54.119H38.8685L38.819 54.1282H38.7695L38.7201 54.1375H38.6706L38.6211 54.1437H38.5717L38.5222 54.1499H38.4727L38.4232 54.1561H38.3738L38.3212 54.1623H38.2686L38.2161 54.1684H38.1635L38.1109 54.1746H38.0584L38.0058 54.1808H37.9532L37.9007 54.187H37.8481L37.7955 54.1932H37.743L37.6873 54.1994H37.6317L37.576 54.2055H37.5203L37.4647 54.2117H37.409L37.3534 54.2179H37.2977L37.2421 54.2241H37.1864L37.1276 54.2303H37.0689L37.0101 54.2365H36.9514L36.8927 54.2427H36.8339L36.7752 54.2488H36.7164L36.6546 54.255H36.5927L36.5309 54.2612H36.469L36.4072 54.2674H36.3453L36.2835 54.2736H36.2217L36.1567 54.2798H36.0918L36.0269 54.2828H35.9619L35.897 54.2859H35.8321L35.764 54.289H35.696L35.628 54.2921H35.56L35.4919 54.2952H35.4239L35.3528 54.2983H35.2817L35.2106 54.3014H35.1394L35.0652 54.3045H34.991L34.9168 54.3076H34.8426L34.7684 54.3107H34.6911L34.6138 54.3138H34.5365L34.4592 54.3169H34.3788H34.2984H34.218H34.1345H34.051H33.9675H33.881H33.7944H33.7078H33.6181H33.5285H33.4357H33.3429H33.2471H33.1512H33.0523H32.9533H32.8513H32.7493H32.6441H32.539H32.4308H32.3195H32.2051H32.0876H31.9701H31.8495H31.7258H31.5959H31.4629H31.3269H31.1847H31.0393H30.8878H30.7301H30.5632H30.3869H30.2014H30.0035H29.7932H29.5644H29.3109H29.0233H28.6801H28.2348H27.1588H25.6344H25.2911H25.0036H24.75H24.5212H24.311H24.1131H23.9275H23.7513H23.5843H23.4266H23.2751H23.1298H22.9875H22.8515H22.7185H22.5887H22.465H22.3444H22.2269H22.1094H21.995H21.8837H21.7754H21.6703H21.5652H21.4631H21.3611H21.2622H21.1632H21.0674H20.9715H20.8787H20.786H20.6963H20.6066H20.5201H20.4335H20.3469H20.2634H20.1799H20.0964H20.016H19.9357H19.8553H19.778H19.7007L19.6234 54.3138H19.5461L19.4718 54.3107H19.3976L19.3234 54.3076H19.2492L19.175 54.3045H19.1039L19.0328 54.3014H18.9616L18.8905 54.2983H18.8225L18.7545 54.2952H18.6865L18.6184 54.2921H18.5504L18.4824 54.289H18.4174L18.3525 54.2859H18.2876L18.2226 54.2828H18.1577L18.0928 54.2767H18.0309L17.9691 54.2705H17.9072L17.8454 54.2643H17.7836L17.7217 54.2581H17.6599L17.598 54.2519H17.5393L17.4805 54.2457H17.4218L17.363 54.2396H17.3043L17.2455 54.2334H17.1868L17.128 54.2272H17.0724L17.0167 54.221H16.9611L16.9054 54.2148H16.8498L16.7941 54.2086H16.7384L16.6828 54.2025H16.6271L16.5715 54.1963H16.5189L16.4663 54.1901H16.4138L16.3612 54.1839H16.3086L16.2561 54.1777H16.2035L16.1509 54.1715H16.0984L16.0458 54.1653H15.9932L15.9407 54.1592H15.8912L15.8417 54.153H15.7923L15.7428 54.1468H15.6933L15.6438 54.1406H15.5944L15.5449 54.1313H15.4954L15.4459 54.1221H15.3965L15.347 54.1128H15.2975L15.2481 54.1035H15.2017L15.1553 54.0942H15.1089L15.0625 54.0849H15.0161L14.9698 54.0757H14.9234L14.877 54.0664H14.8306L14.7842 54.0571H14.7379L14.6915 54.0478H14.6451L14.5987 54.0386H14.5523L14.506 54.0293L14.4627 54.0231L14.4194 54.0169L14.3761 54.0107L14.3328 54.0046L14.2895 53.9984L14.2462 53.9922L14.2029 53.986L14.1596 53.9798L14.1164 53.9736L14.0731 53.9675L14.0298 53.9613L13.9865 53.9551L13.9432 53.9489L13.8999 53.9427L13.8566 53.9365L13.8133 53.9303L13.77 53.9242L13.7267 53.918L13.6835 53.9118L13.6433 53.9056L13.6031 53.8994L13.5629 53.8932L13.5227 53.8871L13.4825 53.8809L13.4423 53.8747L13.4021 53.8685L13.3619 53.8623L13.3217 53.8561L13.2815 53.8499L13.2413 53.8438L13.2011 53.8376L13.1609 53.8314L13.1207 53.8252L13.0805 53.819L13.0403 53.8128L13.0001 53.8067L12.9599 53.8005L12.9197 53.7943L12.8795 53.7881L12.8393 53.7819L12.7991 53.7757L12.7589 53.7696L12.7218 53.7634L12.6847 53.7572L12.6476 53.751L12.6105 53.7448L12.5734 53.7386L12.5363 53.7324L12.4992 53.7263L12.4621 53.7201L12.425 53.7139L12.3879 53.7077L12.3508 53.7015L12.3137 53.6953L12.2766 53.6892L12.2395 53.683L12.2023 53.6768L12.1652 53.6706L12.1281 53.6644L12.091 53.6582L12.0539 53.6521L12.0168 53.6459L11.9797 53.6397L11.9426 53.6335L11.9055 53.6273L11.8684 53.6211L11.8313 53.6149L11.7942 53.6088L11.7571 53.6026L11.72 53.5964L11.686 53.5902L11.652 53.584L11.6179 53.5778L11.5839 53.5717L11.5499 53.5655L11.5159 53.5593L11.4819 53.5531L11.4479 53.5469L11.4139 53.5407L11.3799 53.5345L11.3458 53.5284L11.3118 53.5222L11.2778 53.516L11.2438 53.5098L11.2098 53.5036L11.1758 53.4974L11.1418 53.4913L11.1077 53.4851L11.0737 53.4789L11.0397 53.4696L11.0057 53.4603L10.9717 53.4511L10.9377 53.4418L10.9037 53.4325L10.8697 53.4232L10.8356 53.414L10.8016 53.4047L10.7676 53.3954L10.7336 53.3861L10.6996 53.3768L10.6656 53.3676L10.6316 53.3583L10.5976 53.349L10.5635 53.3397L10.5326 53.3305L10.5017 53.3212L10.4708 53.3119L10.4399 53.3026L10.4089 53.2934L10.378 53.2841L10.3471 53.2748L10.3162 53.2655L10.2853 53.2563L10.2543 53.247L10.2234 53.2377L10.1925 53.2284L10.1616 53.2191L10.1306 53.2099L10.0997 53.2006L10.0688 53.1913L10.0379 53.182L10.007 53.1728L9.97604 53.1635L9.94513 53.1542L9.9142 53.1449L9.88328 53.1357L9.85236 53.1264L9.82144 53.1171L9.79052 53.1078L9.7596 53.0985L9.72868 53.0893L9.69776 53.08L9.66683 53.0707L9.63592 53.0614L9.60499 53.0522L9.57408 53.0429L9.54315 53.0336L9.51223 53.0243L9.48131 53.0151L9.45039 53.0058L9.41947 52.9965L9.38855 52.9872L9.35763 52.978L9.32671 52.9687L9.29888 52.9594L9.27105 52.9501L9.24322 52.9409L9.21539 52.9316L9.18756 52.9223L9.15973 52.913L9.13191 52.9037L9.10408 52.8945L9.07625 52.8852L9.04842 52.8759L9.02059 52.8666L8.99276 52.8574L8.96493 52.8481L8.93711 52.8388L8.90928 52.8295L8.88145 52.8203L8.85362 52.811L8.82579 52.8017L8.79796 52.7924L8.77013 52.7832L8.7423 52.7739L8.71448 52.7646L8.68664 52.7553L8.65882 52.746L8.63099 52.7368L8.60316 52.7275L8.57533 52.7182L8.5475 52.7089L8.51967 52.6997L8.49185 52.6904L8.46401 52.6811L8.43619 52.6718L8.40836 52.6626L8.38053 52.6533L8.3527 52.6409L8.32487 52.6285L8.29704 52.6162L8.26922 52.6038L8.24139 52.5914L8.21356 52.5791L8.18573 52.5667L8.1579 52.5543L8.13007 52.542L8.10224 52.5296L8.07441 52.5172L8.04659 52.5049L8.01876 52.4925L7.99092 52.4801L7.96619 52.4678L7.94146 52.4554L7.91672 52.443L7.89198 52.4306L7.86724 52.4183L7.84251 52.4059L7.81777 52.3935L7.79303 52.3812L7.76829 52.3688L7.74356 52.3564L7.71882 52.3441L7.69409 52.3317L7.66935 52.3193L7.64461 52.307L7.61988 52.2946L7.59514 52.2822L7.5704 52.2699L7.54567 52.2575L7.52093 52.2451L7.49619 52.2327L7.47146 52.2204L7.44672 52.208L7.42198 52.1956L7.39724 52.1833L7.37251 52.1709L7.34777 52.1585L7.32304 52.1462L7.2983 52.1338L7.27356 52.1214L7.24883 52.1091L7.22409 52.0967L7.19935 52.0843L7.17461 52.072L7.14988 52.0596L7.12514 52.0472L7.10041 52.0349L7.07567 52.0225L7.05093 52.0101L7.0262 51.9977L7.00146 51.9854L6.97672 51.973L6.95198 51.9606L6.92725 51.9483L6.90251 51.9359L6.87778 51.9235L6.85304 51.9112L6.8283 51.8988L6.80357 51.8864L6.77883 51.8741L6.75409 51.8617L6.72935 51.8493L6.70462 51.837L6.67988 51.8246L6.65515 51.8122L6.63041 51.7998L6.60567 51.7875L6.58403 51.7751L6.56238 51.7627L6.54074 51.7504L6.51909 51.738L6.49745 51.7256L6.4758 51.7133L6.45416 51.7009L6.43252 51.6885L6.41087 51.6762L6.38923 51.6638L6.36758 51.6514L6.34594 51.636L6.32429 51.6236L6.30265 51.6081L6.281 51.5927L6.25936 51.5772L6.23771 51.5618L6.21607 51.5463L6.19442 51.5308L6.17278 51.5154L6.15113 51.4999L6.12949 51.4844L6.10785 51.469L6.0862 51.4535L6.06456 51.4381L6.04291 51.4226L6.02127 51.4071L5.99963 51.3917L5.97798 51.3762L5.95633 51.3608L5.93469 51.3453L5.91304 51.3298L5.8914 51.3144L5.86975 51.2989L5.84811 51.2835L5.82647 51.268L5.80482 51.2525L5.78318 51.2371L5.76153 51.2216L5.73989 51.2062L5.71824 51.1907L5.6966 51.1752L5.67496 51.1598L5.65331 51.1443L5.63167 51.1288L5.61002 51.1134L5.58838 51.0979L5.56673 51.0825L5.54509 51.067L5.52344 51.0515L5.5018 51.0361L5.48015 51.0206L5.45851 51.0052L5.43686 50.9897L5.41522 50.9742L5.39357 50.9588L5.37193 50.9433L5.35029 50.9279L5.32864 50.9124L5.307 50.8969L5.28535 50.8815L5.26371 50.866L5.24206 50.8506L5.22042 50.8351L5.20187 50.8196L5.18331 50.8042L5.16476 50.7887L5.14621 50.7733L5.12766 50.7578L5.1091 50.7423L5.09055 50.7269L5.072 50.7114L5.05344 50.6959L5.03489 50.6805L5.01634 50.665L4.99779 50.6496L4.97924 50.6341L4.96068 50.6186L4.94213 50.6032L4.92358 50.5877L4.90502 50.5723L4.88647 50.5568L4.86792 50.5413L4.84937 50.5259L4.83081 50.5104L4.81226 50.495L4.79371 50.4795L4.77516 50.464L4.75661 50.4486L4.73805 50.43L4.7195 50.4115L4.70095 50.3929L4.68239 50.3744L4.66384 50.3558L4.64529 50.3373L4.62674 50.3187L4.60819 50.3002L4.58963 50.2816L4.57108 50.263L4.55253 50.2445L4.53398 50.2259L4.51542 50.2074L4.49687 50.1888L4.47832 50.1703L4.45976 50.1517L4.44121 50.1332L4.42266 50.1146L4.40411 50.0961L4.38556 50.0775L4.367 50.059L4.34845 50.0404L4.3299 50.0219L4.31134 50.0033L4.29279 49.9847L4.27424 49.9662L4.25568 49.9476L4.23713 49.9291L4.21858 49.9105L4.20003 49.892L4.18148 49.8734L4.16293 49.8549L4.14437 49.8363L4.12582 49.8178L4.10727 49.7992L4.08871 49.7807L4.07016 49.7621L4.05161 49.7436L4.03306 49.725L4.0145 49.7065L3.99595 49.6879L3.9774 49.6693L3.95885 49.6508L3.9403 49.6322L3.92174 49.6137L3.90319 49.5951L3.88464 49.5766L3.86608 49.558L3.85062 49.5395L3.83517 49.5209L3.8197 49.5024L3.80424 49.4838L3.78878 49.4653L3.77332 49.4467L3.75786 49.4282L3.7424 49.4096L3.72694 49.3911L3.71148 49.3725L3.69602 49.3539L3.68056 49.3354L3.6651 49.3168L3.64964 49.2983L3.63418 49.2797L3.61872 49.2612L3.60326 49.2426L3.5878 49.2241L3.57234 49.2055L3.55688 49.187L3.54141 49.1684L3.52596 49.1499L3.5105 49.1313L3.49503 49.1128L3.47957 49.0942L3.46411 49.0726L3.44865 49.0509L3.43319 49.0293L3.41773 49.0076L3.40227 48.986L3.38681 48.9643L3.37135 48.9427L3.35589 48.921L3.34043 48.8994L3.32497 48.8778L3.30951 48.8561L3.29405 48.8345L3.27859 48.8128L3.26313 48.7912L3.24767 48.7695L3.23221 48.7479L3.21675 48.7262L3.20129 48.7046L3.18583 48.6829L3.17036 48.6613L3.1549 48.6397L3.13945 48.618L3.12399 48.5964L3.10852 48.5747L3.09306 48.5531L3.0776 48.5314L3.06214 48.5098L3.04668 48.4881L3.03122 48.4665L3.01576 48.4449L3.0003 48.4232L2.98484 48.4016L2.96938 48.3799L2.95392 48.3583L2.93846 48.3366L2.923 48.315L2.90754 48.2933L2.89208 48.2717L2.87662 48.25L2.86116 48.2284L2.84569 48.2068L2.83024 48.1851L2.81478 48.1635L2.79931 48.1418L2.78385 48.1202L2.76839 48.0985L2.75294 48.0769L2.73747 48.0552L2.72201 48.0336L2.70655 48.012L2.69109 47.9903L2.67872 47.9687L2.66635 47.947L2.65399 47.9254L2.64162 47.9037L2.62925 47.8821L2.61688 47.8604L2.60451 47.8388L2.59215 47.8171L2.57977 47.7955L2.56741 47.7739L2.55504 47.7522L2.54267 47.7306L2.53031 47.7089L2.51793 47.6842L2.50557 47.6594L2.4932 47.6347L2.48083 47.61L2.46846 47.5852L2.45609 47.5605L2.44373 47.5358L2.43136 47.511L2.41899 47.4863L2.40662 47.4615L2.39425 47.4368L2.38188 47.4121L2.36952 47.3873L2.35714 47.3626L2.34478 47.3379L2.33241 47.3131L2.32004 47.2884L2.30767 47.2636L2.2953 47.2389L2.28294 47.2142L2.27057 47.1894L2.2582 47.1647L2.24583 47.14L2.23346 47.1152L2.2211 47.0905L2.20873 47.0658L2.19636 47.041L2.18399 47.0163L2.17162 46.9915L2.15925 46.9668L2.14688 46.9421L2.13452 46.9173L2.12215 46.8926L2.10978 46.8679L2.09741 46.8431L2.08504 46.8184L2.07267 46.7936L2.06031 46.7689L2.04794 46.7442L2.03557 46.7194L2.0232 46.6947L2.01083 46.67L1.99847 46.6452L1.9861 46.6205L1.97373 46.5957L1.96136 46.571L1.94899 46.5463L1.93662 46.5215L1.92425 46.4968L1.91189 46.4721L1.89952 46.4473L1.88715 46.4226L1.87478 46.3978L1.86241 46.3731L1.85004 46.3484L1.83768 46.3236L1.82531 46.2958L1.81294 46.268L1.80057 46.2401L1.7882 46.2123L1.77584 46.1845L1.76346 46.1567L1.7511 46.1288L1.73873 46.101L1.72636 46.0732L1.71399 46.0453L1.70162 46.0175L1.68926 45.9897L1.67689 45.9619L1.66452 45.934L1.65524 45.9062L1.64597 45.8784L1.63669 45.8505L1.62741 45.8227L1.61814 45.7949L1.60886 45.767L1.59958 45.7392L1.59031 45.7114L1.58103 45.6836L1.57176 45.6557L1.56248 45.6279L1.5532 45.6001L1.54393 45.5722L1.53465 45.5444L1.52538 45.5166L1.5161 45.4887L1.50682 45.4609L1.49754 45.4331L1.48827 45.4053L1.47899 45.3774L1.46972 45.3496L1.46044 45.3218L1.45117 45.2939L1.44189 45.2661L1.43261 45.2383L1.42334 45.2105L1.41406 45.1826L1.40479 45.1548L1.39551 45.127L1.38623 45.0991L1.37695 45.0713L1.36768 45.0435L1.3584 45.0156L1.34913 44.9878L1.33985 44.9569L1.33057 44.926L1.3213 44.8951L1.31202 44.8641L1.30275 44.8332L1.29347 44.8023L1.28419 44.7714L1.27491 44.7404L1.26564 44.7095L1.25636 44.6786L1.24709 44.6477L1.23781 44.6168L1.22853 44.5858L1.21926 44.5549L1.20998 44.524L1.20071 44.4931L1.19143 44.4622L1.18216 44.4312L1.17288 44.4003L1.1636 44.3694L1.15432 44.3385L1.14505 44.3075L1.13577 44.2766L1.1265 44.2457L1.11722 44.2148L1.10794 44.1839L1.09867 44.1529L1.08939 44.122L1.08012 44.0911L1.07084 44.0602L1.06156 44.0293L1.05229 43.9983L1.04301 43.9674L1.03373 43.9365L1.02446 43.9056L1.01518 43.8746L1.0059 43.8437L0.996629 43.8128L0.987353 43.7819L0.978077 43.751L0.968801 43.7169L0.959525 43.6829L0.950249 43.6489L0.940973 43.6149L0.931693 43.5809L0.922417 43.5469L0.913141 43.5129L0.903865 43.4788L0.894589 43.4448L0.885313 43.4108L0.876037 43.3768L0.866762 43.3428L0.857486 43.3088L0.84821 43.2748L0.838934 43.2407L0.832748 43.2067L0.826563 43.1727L0.820382 43.1387L0.814197 43.1047L0.808011 43.0707L0.801826 43.0367L0.795645 43.0027L0.789459 42.9686L0.783274 42.9346L0.777088 42.9006L0.770908 42.8666L0.764722 42.8326L0.758537 42.7986L0.752356 42.7646L0.74617 42.7305L0.739985 42.6965L0.733799 42.6625L0.727619 42.6285L0.721433 42.5945L0.715248 42.5574L0.709067 42.5203L0.702881 42.4832L0.696696 42.4461L0.69051 42.409L0.68433 42.3719L0.678144 42.3347L0.671959 42.2976L0.665778 42.2605L0.659592 42.2234L0.653407 42.1863L0.647221 42.1492L0.641041 42.1121L0.634855 42.075L0.62867 42.0379L0.622484 42.0008L0.616303 41.9637L0.610118 41.9266L0.603932 41.8895L0.597752 41.8524L0.591566 41.8153L0.585381 41.7782L0.579195 41.7411L0.573014 41.7039L0.566829 41.6668L0.560643 41.6297L0.554463 41.5926L0.548277 41.5555L0.542092 41.5153L0.535906 41.4751L0.529725 41.4349L0.52354 41.3947L0.517354 41.3545L0.511174 41.3143L0.504988 41.2741L0.498803 41.2339L0.492617 41.1937L0.486436 41.1535L0.480251 41.1133L0.474065 41.0731L0.46788 41.0329L0.461699 40.9927L0.455514 40.9525L0.449328 40.9124L0.443147 40.8722L0.436962 40.832L0.430776 40.7918L0.424591 40.7516L0.41841 40.7114L0.412225 40.6712L0.406039 40.631L0.399858 40.5877L0.393673 40.5444L0.387487 40.5011L0.381302 40.4578L0.375121 40.4145L0.368936 40.3712L0.36275 40.3279L0.356569 40.2846L0.350384 40.2414L0.344198 40.1981L0.338013 40.1548L0.331832 40.1115L0.325647 40.0682L0.319461 40.0249L0.313276 39.9816L0.307095 39.9383L0.300909 39.895L0.294724 39.8517L0.288543 39.8085L0.282357 39.7621V39.7157L0.273082 39.6693V39.6229L0.263806 39.5765V39.5302L0.25453 39.4838V39.4374L0.245254 39.391V39.3446L0.235973 39.2983V39.2519L0.226698 39.2055V39.1591L0.217422 39.1127V39.0663L0.208146 39.0169V38.9674L0.19887 38.9179V38.8684L0.189594 38.819V38.7695L0.180318 38.72V38.6705L0.174133 38.6211V38.5716L0.167952 38.5221V38.4726L0.161766 38.4232V38.3737L0.155581 38.3211V38.2686L0.149395 38.216V38.1634L0.143215 38.1109V38.0583L0.137029 38.0057V37.9532L0.130844 37.9006V37.848L0.124663 37.7955V37.7429L0.118477 37.6872V37.6316L0.112292 37.5759V37.5203L0.106106 37.4646V37.4089L0.0999256 37.3533V37.2976L0.0937401 37.242V37.1863L0.0875546 37.1276V37.0688L0.0813691 37.0101V36.9513L0.0751883 36.8925V36.8338L0.0690028 36.775V36.7163L0.0628173 36.6545V36.5926L0.0566366 36.5308V36.4689L0.0504511 36.4071V36.3452L0.0442656 36.2834V36.2215L0.0380801 36.1566V36.0917L0.0349897 36.0267V35.9618L0.0318993 35.8969V35.8319L0.0288042 35.7639V35.6959L0.0257138 35.6279V35.5598L0.0226234 35.4918V35.4238L0.0195283 35.3527V35.2815L0.0164379 35.2104V35.1393L0.0133475 35.0651V34.9909L0.0102524 34.9167V34.8424L0.00716206 34.7682V34.6909L0.00406695 34.6136V34.5363L0.000976562 34.459V34.3786V34.2982V34.2178V34.1343V34.0509V33.9674V33.8808V33.7942V33.7076V33.618V33.5283V33.4355V33.3428V33.2469V33.151V33.0521V32.9531V32.8511V32.7491V32.6439V32.5388V32.4306V32.3192V32.2048V32.0873V31.9698V31.8492V31.7256V31.5957V31.4627V31.3267V31.1844V31.0391V30.8876V30.7299V30.5629V30.3866V30.2011V30.0032V29.793V29.5641V29.3106V29.023V28.6798V28.2345V27.1584V25.634V25.2908V25.0032V24.7496V24.5208V24.3106V24.1127V23.9271V23.7509V23.5839V23.4262V23.2747V23.1294V22.9871V22.8511V22.7181V22.5882V22.4645V22.3439V22.2264V22.1089V21.9945V21.8832V21.775V21.6699V21.5647V21.4627V21.3606V21.2617V21.1627V21.0669V20.971V20.8783V20.7855V20.6958V20.6061V20.5196V20.433V20.3464V20.2629V20.1794V20.0959V20.0155V19.9352V19.8548V19.7774V19.7001L0.00406695 19.6228V19.5455L0.00716206 19.4713V19.3971L0.0102524 19.3229V19.2487L0.0133475 19.1745V19.1034L0.0164379 19.0322V18.9611L0.0195283 18.89V18.822L0.0226234 18.7539V18.6859L0.0257138 18.6179V18.5499L0.0288042 18.4818V18.4169L0.0318993 18.352V18.287L0.0349897 18.2221V18.1572L0.0411752 18.0922V18.0304L0.0473607 17.9685V17.9067L0.0535415 17.8448V17.783L0.0597269 17.7212V17.6593L0.0659124 17.5975V17.5387L0.0720932 17.48V17.4212L0.0782787 17.3625V17.3037L0.0844642 17.245V17.1862L0.0906497 17.1275V17.0718L0.0968305 17.0162V16.9605L0.103016 16.9048V16.8492L0.109201 16.7935V16.7379L0.115382 16.6822V16.6265L0.121568 16.5709V16.5183L0.127753 16.4657V16.4132L0.133939 16.3606V16.308L0.140119 16.2555V16.2029L0.146305 16.1503V16.0978L0.15249 16.0452V15.9926L0.158671 15.9401V15.8906L0.164857 15.8411V15.7917L0.171042 15.7422V15.6927L0.177228 15.6432V15.5938L0.186504 15.5443V15.4948L0.195779 15.4453V15.3959L0.205055 15.3464V15.2969L0.214331 15.2474V15.2011L0.223607 15.1547V15.1083L0.232883 15.0619V15.0155L0.242159 14.9691V14.9228L0.251435 14.8764V14.83L0.260711 14.7836V14.7372L0.269987 14.6908V14.6445L0.279267 14.5981V14.5517L0.288543 14.5053L0.294724 14.462L0.300909 14.4187L0.307095 14.3754L0.313276 14.3322L0.319461 14.2889L0.325647 14.2456L0.331832 14.2023L0.338013 14.159L0.344198 14.1157L0.350384 14.0724L0.356569 14.0291L0.36275 13.9858L0.368936 13.9425L0.375121 13.8993L0.381302 13.856L0.387487 13.8127L0.393673 13.7694L0.399858 13.7261L0.406039 13.6828L0.412225 13.6426L0.41841 13.6024L0.424591 13.5622L0.430776 13.522L0.436962 13.4818L0.443147 13.4416L0.449328 13.4014L0.455514 13.3612L0.461699 13.321L0.46788 13.2808L0.474065 13.2406L0.480251 13.2004L0.486436 13.1602L0.492617 13.12L0.498803 13.0798L0.504988 13.0396L0.511174 12.9994L0.517354 12.9592L0.52354 12.919L0.529725 12.8788L0.535906 12.8386L0.542092 12.7984L0.548277 12.7582L0.554463 12.7211L0.560643 12.684L0.566829 12.6469L0.573014 12.6098L0.579195 12.5727L0.585381 12.5356L0.591566 12.4985L0.597752 12.4614L0.603932 12.4243L0.610118 12.3872L0.616303 12.3501L0.622484 12.313L0.62867 12.2759L0.634855 12.2388L0.641041 12.2017L0.647221 12.1646L0.653407 12.1274L0.659592 12.0903L0.665778 12.0532L0.671959 12.0161L0.678144 11.979L0.68433 11.9419L0.69051 11.9048L0.696696 11.8677L0.702881 11.8306L0.709067 11.7935L0.715248 11.7564L0.721433 11.7193L0.727619 11.6853L0.733799 11.6513L0.739985 11.6172L0.74617 11.5832L0.752356 11.5492L0.758537 11.5152L0.764722 11.4812L0.770908 11.4472L0.777088 11.4132L0.783274 11.3791L0.789459 11.3451L0.795645 11.3111L0.801826 11.2771L0.808011 11.2431L0.814197 11.2091L0.820382 11.1751L0.826563 11.141L0.832748 11.107L0.838934 11.073L0.84821 11.039L0.857486 11.005L0.866762 10.971L0.876037 10.937L0.885313 10.903L0.894589 10.8689L0.903865 10.8349L0.913141 10.8009L0.922417 10.7669L0.931693 10.7329L0.940973 10.6989L0.950249 10.6649L0.959525 10.6308L0.968801 10.5968L0.978077 10.5628L0.987353 10.5319L0.996629 10.501L1.0059 10.4701L1.01518 10.4391L1.02446 10.4082L1.03373 10.3773L1.04301 10.3464L1.05229 10.3154L1.06156 10.2845L1.07084 10.2536L1.08012 10.2227L1.08939 10.1918L1.09867 10.1608L1.10794 10.1299L1.11722 10.099L1.1265 10.0681L1.13577 10.0371L1.14505 10.0062L1.15432 9.97531L1.1636 9.94438L1.17288 9.91346L1.18216 9.88254L1.19143 9.85162L1.20071 9.8207L1.20998 9.78978L1.21926 9.75885L1.22853 9.72793L1.23781 9.69701L1.24709 9.66609L1.25636 9.63517L1.26564 9.60425L1.27491 9.57332L1.28419 9.5424L1.29347 9.51148L1.30275 9.48056L1.31202 9.44964L1.3213 9.41872L1.33057 9.3878L1.33985 9.35687L1.34913 9.32595L1.3584 9.29812L1.36768 9.27029L1.37695 9.24246L1.38623 9.21463L1.39551 9.1868L1.40479 9.15898L1.41406 9.13115L1.42334 9.10332L1.43261 9.07549L1.44189 9.04766L1.45117 9.01983L1.46044 8.992L1.46972 8.96417L1.47899 8.93634L1.48827 8.90851L1.49754 8.88068L1.50682 8.85285L1.5161 8.82502L1.52538 8.79719L1.53465 8.76936L1.54393 8.74153L1.5532 8.7137L1.56248 8.68587L1.57176 8.65804L1.58103 8.63022L1.59031 8.60239L1.59958 8.57456L1.60886 8.54673L1.61814 8.5189L1.62741 8.49107L1.63669 8.46324L1.64597 8.43541L1.65524 8.40758L1.66452 8.37975L1.67689 8.35192L1.68926 8.32409L1.70162 8.29626L1.71399 8.26843L1.72636 8.2406L1.73873 8.21277L1.7511 8.18495L1.76346 8.15712L1.77584 8.12929L1.7882 8.10146L1.80057 8.07363L1.81294 8.0458L1.82531 8.01797L1.83768 7.99014L1.85004 7.9654L1.86241 7.94066L1.87478 7.91593L1.88715 7.89119L1.89952 7.86645L1.91189 7.84172L1.92425 7.81698L1.93662 7.79224L1.94899 7.7675L1.96136 7.74277L1.97373 7.71803L1.9861 7.69329L1.99847 7.66855L2.01083 7.64382L2.0232 7.61908L2.03557 7.59434L2.04794 7.56961L2.06031 7.54487L2.07267 7.52013L2.08504 7.49539L2.09741 7.47066L2.10978 7.44592L2.12215 7.42118L2.13452 7.39644L2.14688 7.37171L2.15925 7.34697L2.17162 7.32223L2.18399 7.2975L2.19636 7.27276L2.20873 7.24802L2.2211 7.22328L2.23346 7.19855L2.24583 7.17381L2.2582 7.14907L2.27057 7.12433L2.28294 7.0996L2.2953 7.07486L2.30767 7.05012L2.32004 7.02539L2.33241 7.00065L2.34478 6.97591L2.35714 6.95117L2.36952 6.92644L2.38188 6.9017L2.39425 6.87696L2.40662 6.85222L2.41899 6.82749L2.43136 6.80275L2.44373 6.77801L2.45609 6.75328L2.46846 6.72854L2.48083 6.7038L2.4932 6.67906L2.50557 6.65433L2.51793 6.62959L2.53031 6.60485L2.54267 6.58321L2.55504 6.56156L2.56741 6.53992L2.57977 6.51827L2.59215 6.49663L2.60451 6.47498L2.61688 6.45334L2.62925 6.43169L2.64162 6.41005L2.65399 6.3884L2.66635 6.36676L2.67872 6.34511L2.69109 6.32347L2.70655 6.30182L2.72201 6.28017L2.73747 6.25853L2.75294 6.23688L2.76839 6.21524L2.78385 6.19359L2.79931 6.17195L2.81478 6.1503L2.83024 6.12866L2.84569 6.10701L2.86116 6.08537L2.87662 6.06372L2.89208 6.04208L2.90754 6.02043L2.923 5.99879L2.93846 5.97714L2.95392 5.9555L2.96938 5.93385L2.98484 5.91221L3.0003 5.89056L3.01576 5.86892L3.03122 5.84727L3.04668 5.82563L3.06214 5.80398L3.0776 5.78234L3.09306 5.76069L3.10852 5.73905L3.12399 5.7174L3.13945 5.69576L3.1549 5.67411L3.17036 5.65247L3.18583 5.63082L3.20129 5.60918L3.21675 5.58753L3.23221 5.56589L3.24767 5.54424L3.26313 5.5226L3.27859 5.50095L3.29405 5.47931L3.30951 5.45766L3.32497 5.43602L3.34043 5.41437L3.35589 5.39273L3.37135 5.37108L3.38681 5.34944L3.40227 5.32779L3.41773 5.30614L3.43319 5.2845L3.44865 5.26286L3.46411 5.24121L3.47957 5.21956L3.49503 5.20101L3.5105 5.18246L3.52596 5.16391L3.54141 5.14535L3.55688 5.1268L3.57234 5.10825L3.5878 5.08969L3.60326 5.07114L3.61872 5.05259L3.63418 5.03404L3.64964 5.01548L3.6651 4.99693L3.68056 4.97838L3.69602 4.95982L3.71148 4.94127L3.72694 4.92272L3.7424 4.90416L3.75786 4.88561L3.77332 4.86706L3.78878 4.84851L3.80424 4.82995L3.8197 4.8114L3.83517 4.79285L3.85062 4.77429L3.86608 4.75574L3.88464 4.73719L3.90319 4.71863L3.92174 4.70008L3.9403 4.68153L3.95885 4.66298L3.9774 4.64442L3.99595 4.62587L4.0145 4.60732L4.03306 4.58876L4.05161 4.57021L4.07016 4.55166L4.08871 4.5331L4.10727 4.51455L4.12582 4.496L4.14437 4.47745L4.16293 4.45889L4.18148 4.44034L4.20003 4.42179L4.21858 4.40323L4.23713 4.38468L4.25568 4.36613L4.27424 4.34758L4.29279 4.32902L4.31134 4.31047L4.3299 4.29192L4.34845 4.27336L4.367 4.25481L4.38556 4.23626L4.40411 4.21771L4.42266 4.19915L4.44121 4.1806L4.45976 4.16205L4.47832 4.14349L4.49687 4.12494L4.51542 4.10639L4.53398 4.08783L4.55253 4.06928L4.57108 4.05073L4.58963 4.03218L4.60819 4.01362L4.62674 3.99507L4.64529 3.97652L4.66384 3.95796L4.68239 3.93941L4.70095 3.92086L4.7195 3.9023L4.73805 3.88375L4.75661 3.8652L4.77516 3.84974L4.79371 3.83428L4.81226 3.81882L4.83081 3.80336L4.84937 3.78789L4.86792 3.77243L4.88647 3.75697L4.90502 3.74151L4.92358 3.72605L4.94213 3.71059L4.96068 3.69513L4.97924 3.67967L4.99779 3.66421L5.01634 3.64875L5.03489 3.63329L5.05344 3.61783L5.072 3.60237L5.09055 3.5869L5.1091 3.57144L5.12766 3.55598L5.14621 3.54052L5.16476 3.52506L5.18331 3.5096L5.20187 3.49414L5.22042 3.47868L5.24206 3.46322L5.26371 3.44776L5.28535 3.4323L5.307 3.41684L5.32864 3.40137L5.35029 3.38591L5.37193 3.37045L5.39357 3.35499L5.41522 3.33953L5.43686 3.32407L5.45851 3.30861L5.48015 3.29315L5.5018 3.27769L5.52344 3.26223L5.54509 3.24677L5.56673 3.23131L5.58838 3.21585L5.61002 3.20038L5.63167 3.18492L5.65331 3.16946L5.67496 3.154L5.6966 3.13854L5.71824 3.12308L5.73989 3.10762L5.76153 3.09216L5.78318 3.0767L5.80482 3.06124L5.82647 3.04578L5.84811 3.03032L5.86975 3.01486L5.8914 2.99939L5.91304 2.98393L5.93469 2.96847L5.95633 2.95301L5.97798 2.93755L5.99963 2.92209L6.02127 2.90663L6.04291 2.89117L6.06456 2.87571L6.0862 2.86025L6.10785 2.84479L6.12949 2.82933L6.15113 2.81386L6.17278 2.7984L6.19442 2.78294L6.21607 2.76748L6.23771 2.75202L6.25936 2.73656L6.281 2.7211L6.30265 2.70564L6.32429 2.69018L6.34594 2.67781L6.36758 2.66544L6.38923 2.65307L6.41087 2.6407L6.43252 2.62834L6.45416 2.61597L6.4758 2.6036L6.49745 2.59123L6.51909 2.57886L6.54074 2.56649L6.56238 2.55412L6.58403 2.54175L6.60567 2.52939L6.63041 2.51702L6.65515 2.50465L6.67988 2.49228L6.70462 2.47991L6.72935 2.46754L6.75409 2.45517L6.77883 2.44281L6.80357 2.43044L6.8283 2.41807L6.85304 2.4057L6.87778 2.39333L6.90251 2.38096L6.92725 2.36859L6.95198 2.35623L6.97672 2.34386L7.00146 2.33149L7.0262 2.31912L7.05093 2.30675L7.07567 2.29438L7.10041 2.28201L7.12514 2.26964L7.14988 2.25728L7.17461 2.24491L7.19935 2.23254L7.22409 2.22017L7.24883 2.2078L7.27356 2.19543L7.2983 2.18306L7.32304 2.1707L7.34777 2.15833L7.37251 2.14596L7.39724 2.13359L7.42198 2.12122L7.44672 2.10885L7.47146 2.09648L7.49619 2.08412L7.52093 2.07175L7.54567 2.05938L7.5704 2.04701L7.59514 2.03464L7.61988 2.02227L7.64461 2.0099L7.66935 1.99753L7.69409 1.98517L7.71882 1.9728L7.74356 1.96043L7.76829 1.94806L7.79303 1.93569L7.81777 1.92332L7.84251 1.91095L7.86724 1.89859L7.89198 1.88622L7.91672 1.87385L7.94146 1.86148L7.96619 1.84911L7.99092 1.83674L8.01876 1.82437L8.04659 1.81201L8.07441 1.79964L8.10224 1.78727L8.13007 1.7749L8.1579 1.76253L8.18573 1.75016L8.21356 1.73779L8.24139 1.72542L8.26922 1.71306L8.29704 1.70069L8.32487 1.68832L8.3527 1.67595L8.38053 1.66358L8.40836 1.65431L8.43619 1.64503L8.46401 1.63575L8.49185 1.62648L8.51967 1.6172L8.5475 1.60792L8.57533 1.59865L8.60316 1.58937L8.63099 1.58009L8.65882 1.57082L8.68664 1.56154L8.71448 1.55226L8.7423 1.54299L8.77013 1.53371L8.79796 1.52443L8.82579 1.51516L8.85362 1.50588L8.88145 1.4966L8.90928 1.48733L8.93711 1.47805L8.96493 1.46878L8.99276 1.4595L9.02059 1.45022L9.04842 1.44095L9.07625 1.43167L9.10408 1.42239L9.13191 1.41312L9.15973 1.40384L9.18756 1.39456L9.21539 1.38529L9.24322 1.37601L9.27105 1.36673L9.29888 1.35746L9.32671 1.34818L9.35763 1.3389L9.38855 1.32963L9.41947 1.32035L9.45039 1.31108L9.48131 1.3018L9.51223 1.29252L9.54315 1.28325L9.57408 1.27397L9.60499 1.26469L9.63592 1.25542L9.66683 1.24614L9.69776 1.23686L9.72868 1.22759L9.7596 1.21831L9.79052 1.20903L9.82144 1.19976L9.85236 1.19048L9.88328 1.1812L9.9142 1.17193L9.94513 1.16265L9.97604 1.15338L10.007 1.1441L10.0379 1.13482L10.0688 1.12555L10.0997 1.11627L10.1306 1.10699L10.1616 1.09772L10.1925 1.08844L10.2234 1.07916L10.2543 1.06989L10.2853 1.06061L10.3162 1.05133L10.3471 1.04206L10.378 1.03278L10.4089 1.0235L10.4399 1.01423L10.4708 1.00495L10.5017 0.995675L10.5326 0.986399L10.5635 0.977122L10.5976 0.967846L10.6316 0.958569L10.6656 0.949293L10.6996 0.940016L10.7336 0.93074L10.7676 0.921463L10.8016 0.912187L10.8356 0.90291L10.8697 0.893634L10.9037 0.884358L10.9377 0.875081L10.9717 0.865804L11.0057 0.856528L11.0397 0.847252L11.0737 0.837975L11.1077 0.831791L11.1418 0.825606L11.1758 0.819422L11.2098 0.813238L11.2438 0.807054L11.2778 0.800869L11.3118 0.794685L11.3458 0.788501L11.3799 0.782316L11.4139 0.776132L11.4479 0.769948L11.4819 0.763763L11.5159 0.757579L11.5499 0.751395L11.5839 0.74521L11.6179 0.739026L11.652 0.732842L11.686 0.726657L11.72 0.720473L11.7571 0.714289L11.7942 0.708104L11.8313 0.70192L11.8684 0.695736L11.9055 0.689551L11.9426 0.683367L11.9797 0.677183L12.0168 0.670999L12.0539 0.664814L12.091 0.65863L12.1281 0.652446L12.1652 0.646261L12.2023 0.640077L12.2395 0.633893L12.2766 0.627708L12.3137 0.621524L12.3508 0.61534L12.3879 0.609155L12.425 0.602971L12.4621 0.596787L12.4992 0.590602L12.5363 0.584418L12.5734 0.578234L12.6105 0.572049L12.6476 0.565865L12.6847 0.559681L12.7218 0.553496L12.7589 0.547312L12.7991 0.541128L12.8393 0.534943L12.8795 0.528759L12.9197 0.522575L12.9599 0.516391L13.0001 0.510206L13.0403 0.504022L13.0805 0.497838L13.1207 0.491653L13.1609 0.485469L13.2011 0.479285L13.2413 0.4731L13.2815 0.466916L13.3217 0.460732L13.3619 0.454547L13.4021 0.448363L13.4423 0.442179L13.4825 0.435994L13.5227 0.42981L13.5629 0.423626L13.6031 0.417441L13.6433 0.411257L13.6835 0.405073L13.7267 0.398888L13.77 0.392704L13.8133 0.38652L13.8566 0.380336L13.8999 0.374151L13.9432 0.367967L13.9865 0.361783L14.0298 0.355598L14.0731 0.349414L14.1164 0.34323L14.1596 0.337045L14.2029 0.330861L14.2462 0.324677L14.2895 0.318492L14.3328 0.312308L14.3761 0.306124L14.4194 0.299939L14.4627 0.293755L14.506 0.287571L14.5523 0.281386H14.5987L14.6451 0.27211H14.6915L14.7379 0.262834H14.7842L14.8306 0.253557H14.877L14.9234 0.244281H14.9698L15.0161 0.235004H15.0625L15.1089 0.225728H15.1553L15.2017 0.216451H15.2481L15.2975 0.207175H15.347L15.3965 0.197898H15.4459L15.4954 0.188622H15.5449L15.5944 0.179345H15.6438L15.6933 0.173161H15.7428L15.7923 0.166977H15.8417L15.8912 0.160792H15.9407L15.9932 0.154608H16.0458L16.0984 0.148424H16.1509L16.2035 0.142239H16.2561L16.3086 0.136055H16.3612L16.4138 0.129871H16.4663L16.5189 0.123686H16.5715L16.6271 0.117502H16.6828L16.7384 0.111318H16.7941L16.8498 0.105133H16.9054L16.9611 0.0989491H17.0167L17.0724 0.0927648H17.128L17.1868 0.0865805H17.2455L17.3043 0.0803961H17.363L17.4218 0.0742118H17.4805L17.5393 0.0680275H17.598L17.6599 0.0618432H17.7217L17.7836 0.0556589H17.8454L17.9072 0.0494745H17.9691L18.0309 0.0432902H18.0928L18.1577 0.0371059H18.2226L18.2876 0.0340138H18.3525L18.4174 0.0309216H18.4824L18.5504 0.0278294H18.6184L18.6865 0.0247373H18.7545L18.8225 0.0216451H18.8905L18.9616 0.018553H19.0328L19.1039 0.0154608H19.175L19.2492 0.0123686H19.3234L19.3976 0.00927648H19.4718L19.5461 0.00618432H19.6234L19.7007 0.00309216H19.778L19.8553 0H19.9357H20.016H20.0964H20.1799H20.2634H20.3469H20.4335H20.5201H20.6066H20.6963H20.786H20.8787H20.9715H21.0674H21.1632H21.2622H21.3611H21.4631H21.5652H21.6703H21.7754H21.8837H21.995H22.1094H22.2269H22.3444H22.465H22.5887H22.7185H22.8515H22.9875H23.1298H23.2751H23.4266H23.5843H23.7513H23.9275H24.1131H24.311H24.5212H24.75H25.0036H25.2911H25.6344H26.0796H27.1557H28.6801H29.0233H29.3109H29.5644H29.7932H30.0035H30.2014H30.3869H30.5632H30.7301H30.8878H31.0393H31.1847H31.3269H31.4629H31.5959H31.7258H31.8495H31.9701H32.0876H32.2051H32.3195H32.4308H32.539H32.6441H32.7493H32.8513H32.9533H33.0523H33.1512H33.2471H33.3429H33.4357H33.5285H33.6181H33.7078H33.7944H33.881H33.9675H34.051H34.1345H34.218H34.2984H34.3788H34.4592H34.5365H34.6138L34.6911 0.00309216H34.7684L34.8426 0.00618432H34.9168L34.991 0.00927648H35.0652L35.1394 0.0123686H35.2106L35.2817 0.0154608H35.3528L35.4239 0.018553H35.4919L35.56 0.0216451H35.628L35.696 0.0247373H35.764L35.8321 0.0278294H35.897L35.9619 0.0309216H36.0269L36.0918 0.0340138H36.1567L36.2217 0.0401981H36.2835L36.3453 0.0463824H36.4072L36.469 0.0525667H36.5309L36.5927 0.058751H36.6546L36.7164 0.0649353H36.7752L36.8339 0.0711197H36.8927L36.9514 0.077304H37.0101L37.0689 0.0834883H37.1276L37.1864 0.0896726H37.2421L37.2977 0.0958569H37.3534L37.409 0.102041H37.4647L37.5203 0.108226H37.576L37.6317 0.11441H37.6873L37.743 0.120594H37.7955L37.8481 0.126779H37.9007L37.9532 0.132963H38.0058L38.0584 0.139147H38.1109L38.1635 0.145331H38.2161L38.2686 0.151516H38.3212L38.3738 0.1577H38.4232L38.4727 0.163884H38.5222L38.5717 0.170069H38.6211L38.6706 0.176253H38.7201L38.7695 0.18553H38.819L38.8685 0.194806H38.918L38.9674 0.204083H39.0169L39.0664 0.213359H39.1128L39.1591 0.222635H39.2055L39.2519 0.231912H39.2983L39.3447 0.241188H39.3911L39.4374 0.250465H39.4838L39.5302 0.259741H39.5766L39.623 0.269018H39.6693L39.7157 0.278294H39.7621L39.8085 0.287571L39.8518 0.293755L39.8951 0.299939L39.9384 0.306124L39.9816 0.312308L40.0249 0.318492L40.0682 0.324677L40.1115 0.330861L40.1548 0.337045L40.1981 0.34323L40.2414 0.349414L40.2847 0.355598L40.328 0.361783L40.3713 0.367967L40.4145 0.374151L40.4578 0.380336L40.5011 0.38652L40.5444 0.392704L40.5877 0.398888L40.631 0.405073L40.6712 0.411257L40.7114 0.417441L40.7516 0.423626L40.7918 0.42981L40.832 0.435994L40.8722 0.442179L40.9124 0.448363L40.9526 0.454547L40.9928 0.460732L41.033 0.466916L41.0732 0.4731L41.1133 0.479285L41.1535 0.485469L41.1937 0.491653L41.2339 0.497838L41.2741 0.504022L41.3143 0.510206L41.3545 0.516391L41.3947 0.522575L41.4349 0.528759L41.4751 0.534943L41.5153 0.541128L41.5555 0.547312L41.5926 0.553496L41.6297 0.559681L41.6668 0.565865L41.7039 0.572049L41.741 0.578234L41.7781 0.584418L41.8153 0.590602L41.8524 0.596787L41.8895 0.602971L41.9266 0.609155L41.9637 0.61534L42.0008 0.621524L42.0379 0.627708L42.075 0.633893L42.1121 0.640077L42.1492 0.646261L42.1863 0.652446L42.2234 0.65863L42.2605 0.664814L42.2976 0.670999L42.3347 0.677183L42.3718 0.683367L42.4089 0.689551L42.446 0.695736L42.4831 0.70192L42.5202 0.708104L42.5574 0.714289L42.5945 0.720473L42.6285 0.726657L42.6625 0.732842L42.6965 0.739026L42.7305 0.74521L42.7645 0.751395L42.7985 0.757579L42.8326 0.763763L42.8666 0.769948L42.9006 0.776132L42.9346 0.782316L42.9686 0.788501L43.0026 0.794685L43.0366 0.800869L43.0706 0.807054L43.1047 0.813238L43.1387 0.819422L43.1727 0.825606L43.2067 0.831791L43.2407 0.837975L43.2747 0.847252L43.3087 0.856528L43.3427 0.865804L43.3768 0.875081L43.4108 0.884358L43.4448 0.893634L43.4788 0.90291L43.5128 0.912187L43.5468 0.921463L43.5808 0.93074L43.6148 0.940016L43.6489 0.949293L43.6829 0.958569L43.7169 0.967846L43.7509 0.977122L43.7818 0.986399L43.8127 0.995675L43.8437 1.00495L43.8746 1.01423L43.9055 1.0235L43.9364 1.03278L43.9673 1.04206L43.9983 1.05133L44.0292 1.06061L44.0601 1.06989L44.091 1.07916L44.1219 1.08844L44.1529 1.09772L44.1838 1.10699L44.2147 1.11627L44.2456 1.12555L44.2765 1.13482L44.3075 1.1441L44.3384 1.15338L44.3693 1.16265L44.4002 1.17193L44.4312 1.1812L44.4621 1.19048L44.493 1.19976L44.5239 1.20903L44.5548 1.21831L44.5858 1.22759L44.6167 1.23686L44.6476 1.24614L44.6785 1.25542L44.7094 1.26469L44.7404 1.27397L44.7713 1.28325L44.8022 1.29252L44.8331 1.3018L44.8641 1.31108L44.895 1.32035L44.9259 1.32963L44.9568 1.3389L44.9877 1.34818L45.0156 1.35746L45.0434 1.36673L45.0712 1.37601L45.099 1.38529L45.1269 1.39456L45.1547 1.40384L45.1825 1.41312L45.2104 1.42239L45.2382 1.43167L45.266 1.44095L45.2938 1.45022L45.3217 1.4595L45.3495 1.46878L45.3773 1.47805L45.4052 1.48733L45.433 1.4966L45.4608 1.50588L45.4887 1.51516L45.5165 1.52443L45.5443 1.53371L45.5721 1.54299L45.6 1.55226L45.6278 1.56154L45.6556 1.57082L45.6835 1.58009L45.7113 1.58937L45.7391 1.59865L45.7669 1.60792L45.7948 1.6172L45.8226 1.62648L45.8504 1.63575L45.8783 1.64503L45.9061 1.65431L45.9339 1.66358L45.9617 1.67595L45.9896 1.68832L46.0174 1.70069L46.0452 1.71306L46.0731 1.72542L46.1009 1.73779L46.1287 1.75016L46.1565 1.76253L46.1844 1.7749L46.2122 1.78727L46.24 1.79964L46.2679 1.81201L46.2957 1.82437L46.3235 1.83674L46.3482 1.84911L46.373 1.86148L46.3977 1.87385L46.4225 1.88622L46.4472 1.89859L46.4719 1.91095L46.4967 1.92332L46.5214 1.93569L46.5461 1.94806L46.5709 1.96043L46.5956 1.9728L46.6204 1.98517L46.6451 1.99753L46.6698 2.0099L46.6946 2.02227L46.7193 2.03464L46.744 2.04701L46.7688 2.05938L46.7935 2.07175L46.8182 2.08412L46.843 2.09648L46.8677 2.10885L46.8925 2.12122L46.9172 2.13359L46.9419 2.14596L46.9667 2.15833L46.9914 2.1707L47.0161 2.18306L47.0409 2.19543L47.0656 2.2078L47.0903 2.22017L47.1151 2.23254L47.1398 2.24491L47.1646 2.25728L47.1893 2.26964L47.214 2.28201L47.2388 2.29438L47.2635 2.30675L47.2882 2.31912L47.313 2.33149L47.3377 2.34386L47.3625 2.35623L47.3872 2.36859L47.4119 2.38096L47.4367 2.39333L47.4614 2.4057L47.4861 2.41807L47.5109 2.43044L47.5356 2.44281L47.5604 2.45517L47.5851 2.46754L47.6098 2.47991L47.6346 2.49228L47.6593 2.50465L47.684 2.51702L47.7088 2.52939L47.7304 2.54175L47.7521 2.55412L47.7737 2.56649L47.7953 2.57886L47.817 2.59123L47.8386 2.6036L47.8603 2.61597L47.8819 2.62834L47.9036 2.6407L47.9252 2.65307L47.9469 2.66544L47.9685 2.67781L47.9901 2.69018L48.0118 2.70564L48.0334 2.7211L48.0551 2.73656L48.0767 2.75202L48.0984 2.76748L48.12 2.78294L48.1417 2.7984L48.1633 2.81386L48.1849 2.82933L48.2066 2.84479L48.2282 2.86025L48.2499 2.87571L48.2715 2.89117L48.2932 2.90663L48.3148 2.92209L48.3365 2.93755L48.3581 2.95301L48.3798 2.96847L48.4014 2.98393L48.423 2.99939L48.4447 3.01486L48.4663 3.03032L48.488 3.04578L48.5096 3.06124L48.5313 3.0767L48.5529 3.09216L48.5746 3.10762L48.5962 3.12308L48.6178 3.13854L48.6395 3.154L48.6611 3.16946L48.6828 3.18492L48.7044 3.20038L48.7261 3.21585L48.7477 3.23131L48.7694 3.24677L48.791 3.26223L48.8126 3.27769L48.8343 3.29315L48.8559 3.30861L48.8776 3.32407L48.8992 3.33953L48.9209 3.35499L48.9425 3.37045L48.9641 3.38591L48.9858 3.40137L49.0074 3.41684L49.0291 3.4323L49.0507 3.44776L49.0724 3.46322L49.094 3.47868L49.1126 3.49414L49.1311 3.5096L49.1497 3.52506L49.1682 3.54052L49.1868 3.55598L49.2053 3.57144L49.2239 3.5869L49.2424 3.60237L49.261 3.61783L49.2795 3.63329L49.2981 3.64875L49.3167 3.66421L49.3352 3.67967L49.3538 3.69513L49.3723 3.71059L49.3909 3.72605L49.4094 3.74151L49.428 3.75697L49.4465 3.77243L49.4651 3.78789L49.4836 3.80336L49.5022 3.81882L49.5207 3.83428L49.5393 3.84974L49.5578 3.8652L49.5764 3.88375L49.5949 3.9023L49.6135 3.92086L49.632 3.93941L49.6506 3.95796L49.6691 3.97652L49.6877 3.99507L49.7063 4.01362L49.7248 4.03218L49.7434 4.05073L49.7619 4.06928L49.7805 4.08783L49.799 4.10639L49.8176 4.12494L49.8361 4.14349L49.8547 4.16205L49.8732 4.1806L49.8918 4.19915L49.9103 4.21771L49.9289 4.23626L49.9474 4.25481L49.966 4.27336L49.9845 4.29192L50.0031 4.31047L50.0216 4.32902L50.0402 4.34758L50.0588 4.36613L50.0773 4.38468L50.0959 4.40323L50.1144 4.42179L50.133 4.44034L50.1515 4.45889L50.1701 4.47745L50.1886 4.496L50.2072 4.51455L50.2257 4.5331L50.2443 4.55166L50.2628 4.57021L50.2814 4.58876L50.2999 4.60732L50.3185 4.62587L50.337 4.64442L50.3556 4.66298L50.3741 4.68153L50.3927 4.70008L50.4113 4.71863L50.4298 4.73719L50.4484 4.75574L50.4638 4.77429L50.4793 4.79285L50.4947 4.8114L50.5102 4.82995L50.5257 4.84851L50.5411 4.86706L50.5566 4.88561L50.572 4.90416L50.5875 4.92272L50.603 4.94127L50.6184 4.95982L50.6339 4.97838L50.6493 4.99693L50.6648 5.01548L50.6803 5.03404L50.6957 5.05259L50.7112 5.07114L50.7266 5.08969L50.7421 5.10825L50.7576 5.1268L50.773 5.14535L50.7885 5.16391L50.8039 5.18246L50.8194 5.20101L50.8349 5.21956L50.8503 5.24121L50.8658 5.26286L50.8812 5.2845L50.8967 5.30614L50.9122 5.32779L50.9276 5.34944L50.9431 5.37108L50.9585 5.39273L50.974 5.41437L50.9895 5.43602L51.0049 5.45766L51.0204 5.47931L51.0359 5.50095L51.0513 5.5226L51.0668 5.54424L51.0822 5.56589L51.0977 5.58753L51.1132 5.60918L51.1286 5.63082L51.1441 5.65247L51.1595 5.67411L51.175 5.69576L51.1905 5.7174L51.2059 5.73905L51.2214 5.76069L51.2368 5.78234L51.2523 5.80398L51.2678 5.82563L51.2832 5.84727L51.2987 5.86892L51.3141 5.89056L51.3296 5.91221L51.3451 5.93385L51.3605 5.9555L51.376 5.97714L51.3914 5.99879L51.4069 6.02043L51.4224 6.04208L51.4378 6.06372L51.4533 6.08537L51.4687 6.10701L51.4842 6.12866L51.4997 6.1503L51.5151 6.17195L51.5306 6.19359L51.546 6.21524L51.5615 6.23688L51.577 6.25853L51.5924 6.28017L51.6079 6.30182L51.6233 6.32347L51.6357 6.34511L51.6512 6.36676L51.6635 6.3884L51.6759 6.41005L51.6883 6.43169L51.7006 6.45334L51.713 6.47498L51.7254 6.49663L51.7378 6.51827L51.7501 6.53992L51.7625 6.56156L51.7749 6.58321L51.7872 6.60485L51.7996 6.62959L51.812 6.65433L51.8243 6.67906L51.8367 6.7038L51.8491 6.72854L51.8614 6.75328L51.8738 6.77801L51.8862 6.80275L51.8985 6.82749L51.9109 6.85222L51.9233 6.87696L51.9356 6.9017L51.948 6.92644L51.9604 6.95117L51.9728 6.97591L51.9851 7.00065L51.9975 7.02539L52.0099 7.05012L52.0222 7.07486L52.0346 7.0996L52.047 7.12433L52.0593 7.14907L52.0717 7.17381L52.0841 7.19855L52.0964 7.22328L52.1088 7.24802L52.1212 7.27276L52.1335 7.2975L52.1459 7.32223L52.1583 7.34697L52.1707 7.37171L52.183 7.39644L52.1954 7.42118L52.2078 7.44592L52.2201 7.47066L52.2325 7.49539L52.2449 7.52013L52.2572 7.54487L52.2696 7.56961L52.282 7.59434L52.2943 7.61908L52.3067 7.64382L52.3191 7.66855L52.3314 7.69329L52.3438 7.71803L52.3562 7.74277L52.3685 7.7675L52.3809 7.79224L52.3933 7.81698L52.4056 7.84172L52.418 7.86645L52.4304 7.89119L52.4427 7.91593L52.4551 7.94066L52.4675 7.9654L52.4799 7.99014L52.4922 8.01797L52.5046 8.0458L52.517 8.07363L52.5293 8.10146L52.5417 8.12929L52.5541 8.15712L52.5664 8.18495L52.5788 8.21277L52.5912 8.2406L52.6035 8.26843L52.6159 8.29626L52.6283 8.32409L52.6406 8.35192L52.653 8.37975L52.6623 8.40758L52.6716 8.43541L52.6808 8.46324L52.6901 8.49107L52.6994 8.5189L52.7087 8.54673L52.7179 8.57456L52.7272 8.60239L52.7365 8.63022L52.7458 8.65804L52.7551 8.68587L52.7643 8.7137L52.7736 8.74153L52.7829 8.76936L52.7922 8.79719L52.8014 8.82502L52.8107 8.85285L52.82 8.88068L52.8293 8.90851L52.8385 8.93634L52.8478 8.96417L52.8571 8.992L52.8664 9.01983L52.8756 9.04766L52.8849 9.07549L52.8942 9.10332L52.9035 9.13115L52.9128 9.15898L52.922 9.1868L52.9313 9.21463L52.9406 9.24246L52.9499 9.27029L52.9591 9.29812L52.9684 9.32595L52.9777 9.35687L52.987 9.3878L52.9962 9.41872L53.0055 9.44964L53.0148 9.48056L53.0241 9.51148L53.0333 9.5424L53.0426 9.57332L53.0519 9.60425L53.0612 9.63517L53.0704 9.66609L53.0797 9.69701L53.089 9.72793L53.0983 9.75885L53.1076 9.78978L53.1168 9.8207L53.1261 9.85162L53.1354 9.88254L53.1447 9.91346L53.1539 9.94438L53.1632 9.97531L53.1725 10.0062L53.1818 10.0371L53.191 10.0681L53.2003 10.099L53.2096 10.1299L53.2189 10.1608L53.2281 10.1918L53.2374 10.2227L53.2467 10.2536L53.256 10.2845L53.2652 10.3154L53.2745 10.3464L53.2838 10.3773L53.2931 10.4082L53.3023 10.4391L53.3116 10.4701L53.3209 10.501L53.3302 10.5319L53.3395 10.5628L53.3487 10.5968L53.358 10.6308L53.3673 10.6649L53.3766 10.6989L53.3858 10.7329L53.3951 10.7669L53.4044 10.8009L53.4137 10.8349L53.4229 10.8689L53.4322 10.903L53.4415 10.937L53.4508 10.971L53.46 11.005L53.4693 11.039L53.4786 11.073L53.4848 11.107L53.491 11.141L53.4972 11.1751L53.5033 11.2091L53.5095 11.2431L53.5157 11.2771L53.5219 11.3111L53.5281 11.3451L53.5343 11.3791L53.5404 11.4132L53.5466 11.4472L53.5528 11.4812L53.559 11.5152L53.5652 11.5492L53.5714 11.5832L53.5775 11.6172L53.5837 11.6513L53.5899 11.6853L53.5961 11.7193L53.6023 11.7564L53.6085 11.7935L53.6147 11.8306L53.6208 11.8677L53.627 11.9048L53.6332 11.9419L53.6394 11.979L53.6456 12.0161L53.6518 12.0532L53.6579 12.0903L53.6641 12.1274L53.6703 12.1646L53.6765 12.2017L53.6827 12.2388L53.6889 12.2759L53.695 12.313L53.7012 12.3501L53.7074 12.3872L53.7136 12.4243L53.7198 12.4614L53.726 12.4985L53.7322 12.5356L53.7383 12.5727L53.7445 12.6098L53.7507 12.6469L53.7569 12.684L53.7631 12.7211L53.7693 12.7582L53.7754 12.7984L53.7816 12.8386L53.7878 12.8788L53.794 12.919L53.8002 12.9592L53.8064 12.9994L53.8125 13.0396L53.8187 13.0798L53.8249 13.12L53.8311 13.1602L53.8373 13.2004L53.8435 13.2406L53.8497 13.2808L53.8558 13.321L53.862 13.3612L53.8682 13.4014L53.8744 13.4416L53.8806 13.4818L53.8868 13.522L53.8929 13.5622L53.8991 13.6024L53.9053 13.6426L53.9115 13.6828L53.9177 13.7261L53.9239 13.7694L53.93 13.8127L53.9362 13.856L53.9424 13.8993L53.9486 13.9425L53.9548 13.9858L53.961 14.0291L53.9672 14.0724L53.9733 14.1157L53.9795 14.159L53.9857 14.2023L53.9919 14.2456L53.9981 14.2889L54.0043 14.3322L54.0104 14.3754L54.0166 14.4187L54.0228 14.462L54.029 14.5053L54.0352 14.5517V14.5981L54.0445 14.6445V14.6908L54.0537 14.7372V14.7836L54.063 14.83V14.8764L54.0723 14.9228V14.9691L54.0816 15.0155V15.0619L54.0908 15.1083V15.1547L54.1001 15.2011V15.2474L54.1094 15.2969V15.3464L54.1187 15.3959V15.4453L54.1279 15.4948V15.5443L54.1372 15.5938V15.6432L54.1434 15.6927V15.7422L54.1496 15.7917V15.8411L54.1558 15.8906V15.9401L54.1619 15.9926V16.0452L54.1681 16.0978V16.1503L54.1743 16.2029V16.2555L54.1805 16.308V16.3606L54.1867 16.4132V16.4657L54.1929 16.5183V16.5709L54.1991 16.6265V16.6822L54.2052 16.7379V16.7935L54.2114 16.8492V16.9048L54.2176 16.9605V17.0162L54.2238 17.0718V17.1275L54.23 17.1862V17.245L54.2362 17.3037V17.3625L54.2423 17.4212V17.48L54.2485 17.5387V17.5975L54.2547 17.6593V17.7212L54.2609 17.783V17.8448L54.2671 17.9067V17.9685L54.2733 18.0304V18.0922L54.2794 18.1572V18.2221L54.2825 18.287V18.352L54.2856 18.4169V18.4818L54.2887 18.5499V18.6179L54.2918 18.6859V18.7539L54.2949 18.822V18.89L54.298 18.9611V19.0322L54.3011 19.1034V19.1745L54.3042 19.2487V19.3229L54.3073 19.3971V19.4713L54.3104 19.5455V19.6228L54.3135 19.7001V19.7774L54.3166 19.8548V19.9352V20.0155V20.0959V20.1794V20.2629V20.3464V20.433V20.5196V20.6061V20.6958V20.7855V20.8783V20.971V21.0669V21.1627V21.2617V21.3606V21.4627V21.5647V21.6699V21.775V21.8832V21.9945V22.1089V22.2264V22.3439V22.4645V22.5882V22.7181V22.8511V22.9871V23.1294V23.2747V23.4262V23.5839V23.7509V23.9271V24.1127V24.3106V24.5208V24.7496V25.0032V25.2908V25.634V26.0793V27.1553Z" fill="#FF671F"/>
<path d="M45.509 13.5744L28.9576 14.4487C28.8677 14.4548 28.781 14.4857 28.7067 14.5413L27.4647 15.499C27.3036 15.6256 27.0776 15.6256 26.9165 15.499L25.6745 14.5413C25.6033 14.4857 25.5166 14.4548 25.4236 14.4487L8.87531 13.5744C7.35149 13.4941 5.86174 14.0687 4.78391 15.1561L3.799 16.1477C3.52645 16.4226 3.6875 16.8953 4.07156 16.9416L14.6547 18.2483C15.0325 18.2946 15.4135 18.1649 15.683 17.893C15.9524 17.6212 16.3334 17.4915 16.7112 17.5378L22.6795 18.2761C22.9552 18.3101 23.2092 18.4367 23.4043 18.6313L25.2007 20.4416C25.4329 20.6763 25.563 20.9945 25.563 21.3251V23.5678C25.563 23.8983 25.4329 24.2165 25.2007 24.4513L24.0795 25.5819C23.8472 25.8167 23.7171 26.1348 23.7171 26.4654V37.96C23.7171 38.2906 23.8472 38.6087 24.0795 38.8435L25.5847 40.3603C25.817 40.5951 26.1329 40.7248 26.4612 40.7248H27.9231C28.2514 40.7248 28.5673 40.5951 28.7996 40.3603L30.3048 38.8435C30.5371 38.6087 30.6672 38.2937 30.6672 37.96V26.4654C30.6672 26.1348 30.5371 25.8167 30.3048 25.5819L29.1836 24.4513C28.9514 24.2165 28.8213 23.8983 28.8213 23.5678V21.3251C28.8213 20.9945 28.9514 20.6763 29.1836 20.4416L30.98 18.6313C31.1751 18.4336 31.4322 18.3101 31.7048 18.2761L37.6731 17.5378C38.0509 17.4915 38.4319 17.6212 38.7013 17.893C38.9708 18.1649 39.3517 18.2946 39.7296 18.2483L50.3127 16.9416C50.6968 16.8922 50.8578 16.4226 50.5853 16.1477L49.6004 15.1561C48.5195 14.0687 47.0328 13.4941 45.509 13.5744Z" fill="#F2F2F2"/>
<path d="M104.86 36.2073H113.856V33.0527H104.572V21.2627H113.856V18.1082H104.86C102.955 18.1082 101.409 19.6499 101.409 21.55V32.7654C101.409 34.6655 102.955 36.2073 104.86 36.2073Z" fill="#0F0F0F"/>
<path d="M128.366 36.2073H126.393C126.064 36.2073 125.798 35.9415 125.798 35.614V29.3297C125.798 29.0022 125.531 28.7365 125.203 28.7365H120.275C119.946 28.7365 119.68 29.0022 119.68 29.3297V35.614C119.68 35.9415 119.413 36.2073 119.085 36.2073H117.112C116.783 36.2073 116.517 35.9415 116.517 35.614V18.7014C116.517 18.3739 116.783 18.1082 117.112 18.1082H119.085C119.413 18.1082 119.68 18.3739 119.68 18.7014V24.9857C119.68 25.3132 119.946 25.5789 120.275 25.5789H125.203C125.531 25.5789 125.798 25.3132 125.798 24.9857V18.7014C125.798 18.3739 126.064 18.1082 126.393 18.1082H128.366C128.694 18.1082 128.961 18.3739 128.961 18.7014V35.614C128.961 35.9415 128.694 36.2073 128.366 36.2073Z" fill="#0F0F0F"/>
<path d="M143.436 18.1052H132.176C131.847 18.1052 131.581 18.3708 131.581 18.6984V20.6665C131.581 20.9942 131.847 21.2597 132.176 21.2597H143.436C143.764 21.2597 144.031 20.9942 144.031 20.6665V18.6984C144.031 18.3708 143.764 18.1052 143.436 18.1052Z" fill="#0F0F0F"/>
<path d="M143.436 25.5791H132.176C131.847 25.5791 131.581 25.8447 131.581 26.1723V28.1404C131.581 28.468 131.847 28.7336 132.176 28.7336H143.436C143.764 28.7336 144.031 28.468 144.031 28.1404V26.1723C144.031 25.8447 143.764 25.5791 143.436 25.5791Z" fill="#0F0F0F"/>
<path d="M143.436 33.053H132.176C131.847 33.053 131.581 33.3186 131.581 33.6462V35.6143C131.581 35.9419 131.847 36.2075 132.176 36.2075H143.436C143.764 36.2075 144.031 35.9419 144.031 35.6143V33.6462C144.031 33.3186 143.764 33.053 143.436 33.053Z" fill="#0F0F0F"/>
<path d="M176.328 36.2073H170.783C168.878 36.2073 167.332 34.6655 167.332 32.7654V21.55C167.332 19.6499 168.878 18.1082 170.783 18.1082H179.779V21.2627H170.495V33.0527H176.616V27.0156H179.779V32.7685C179.779 34.6686 178.233 36.2103 176.328 36.2103V36.2073Z" fill="#0F0F0F"/>
<path d="M182.458 32.7501C182.458 34.6595 184.009 36.2074 185.924 36.2074H194.904V33.0529H185.62V18.1052H182.458V32.7501Z" fill="#0F0F0F"/>
<path d="M209.476 18.1052H198.215C197.887 18.1052 197.621 18.3708 197.621 18.6984V20.6665C197.621 20.9942 197.887 21.2597 198.215 21.2597H209.476C209.804 21.2597 210.07 20.9942 210.07 20.6665V18.6984C210.07 18.3708 209.804 18.1052 209.476 18.1052Z" fill="#0F0F0F"/>
<path d="M209.476 25.5791H198.215C197.887 25.5791 197.621 25.8447 197.621 26.1723V28.1404C197.621 28.468 197.887 28.7336 198.215 28.7336H209.476C209.804 28.7336 210.07 28.468 210.07 28.1404V26.1723C210.07 25.8447 209.804 25.5791 209.476 25.5791Z" fill="#0F0F0F"/>
<path d="M209.476 33.053H198.215C197.887 33.053 197.621 33.3186 197.621 33.6462V35.6143C197.621 35.9419 197.887 36.2075 198.215 36.2075H209.476C209.804 36.2075 210.07 35.9419 210.07 35.6143V33.6462C210.07 33.3186 209.804 33.053 209.476 33.053Z" fill="#0F0F0F"/>
<path d="M98.1909 18.1052H86.9307C86.6022 18.1052 86.3359 18.3708 86.3359 18.6984V20.6665C86.3359 20.9942 86.6022 21.2597 86.9307 21.2597H98.1909C98.5193 21.2597 98.7856 20.9942 98.7856 20.6665V18.6984C98.7856 18.3708 98.5193 18.1052 98.1909 18.1052Z" fill="#0F0F0F"/>
<path d="M98.1909 25.5791H86.9307C86.6022 25.5791 86.3359 25.8447 86.3359 26.1723V28.1404C86.3359 28.468 86.6022 28.7336 86.9307 28.7336H98.1909C98.5193 28.7336 98.7856 28.468 98.7856 28.1404V26.1723C98.7856 25.8447 98.5193 25.5791 98.1909 25.5791Z" fill="#0F0F0F"/>
<path d="M98.1909 33.053H86.9307C86.6022 33.053 86.3359 33.3186 86.3359 33.6462V35.6143C86.3359 35.9419 86.6022 36.2075 86.9307 36.2075H98.1909C98.5193 36.2075 98.7856 35.9419 98.7856 35.6143V33.6462C98.7856 33.3186 98.5193 33.053 98.1909 33.053Z" fill="#0F0F0F"/>
<path d="M83.1142 18.1052H66.4981C66.1697 18.1052 65.9033 18.3709 65.9033 18.6984V20.6665C65.9033 20.994 66.1697 21.2597 66.4981 21.2597H72.6284C72.9568 21.2597 73.2232 21.5255 73.2232 21.853V35.6111C73.2232 35.9386 73.4896 36.2043 73.818 36.2043H75.7912C76.1196 36.2043 76.386 35.9386 76.386 35.6111V21.853C76.386 21.5255 76.6524 21.2597 76.9807 21.2597H83.1111C83.4395 21.2597 83.7059 20.994 83.7059 20.6665V18.6984C83.7059 18.3709 83.4395 18.1052 83.1111 18.1052H83.1142Z" fill="#0F0F0F"/>
<path d="M165.539 36.2074H163.364C163.132 36.2074 162.921 36.0746 162.825 35.8645L156.97 23.3453C156.757 22.888 156.103 22.888 155.889 23.3453L150.035 35.8645C149.935 36.0746 149.725 36.2074 149.496 36.2074H147.321C146.884 36.2074 146.596 35.7563 146.782 35.3609L154.69 18.4482C154.79 18.2381 155 18.1052 155.229 18.1052H157.633C157.866 18.1052 158.076 18.2381 158.172 18.4482L166.081 35.3609C166.264 35.7563 165.975 36.2074 165.542 36.2074H165.539Z" fill="#0F0F0F"/>
</svg>
