<?xml version="1.0" encoding="utf-8" ?>
<svg xmlns="http://www.w3.org/2000/svg" xmlns:xlink="http://www.w3.org/1999/xlink" width="32" height="32" viewBox="0 0 32 32">
	<defs>
		<clipPath id="clipPath9470450067">
			<path d="M0 0L32 0L32 32L0 32L0 0Z" fill-rule="nonzero" transform="matrix(1 0 0 1 -0 -0)"/>
		</clipPath>
	</defs>
	<g clip-path="url(#clipPath9470450067)">
		<path d="M0 4C0 2.89543 0.390524 1.95262 1.17157 1.17157C1.95262 0.390525 2.89543 0 4 0L24 0C25.1046 0 26.0474 0.390524 26.8284 1.17157C27.6095 1.95262 28 2.89543 28 4L28 12C28 13.1046 27.6095 14.0474 26.8284 14.8284C26.0474 15.6095 25.1046 16 24 16L4 16C2.89543 16 1.95262 15.6095 1.17157 14.8284C0.390524 14.0474 0 13.1046 0 12L0 4ZM4 2C3.44772 2 2.97631 2.19526 2.58579 2.58579C2.19526 2.97631 2 3.44772 2 4L2 12C2 12.5523 2.19526 13.0237 2.58579 13.4142C2.97631 13.8047 3.44772 14 4 14L24 14C24.5523 14 25.0237 13.8047 25.4142 13.4142C25.8047 13.0237 26 12.5523 26 12L26 4C26 3.44772 25.8047 2.97631 25.4142 2.58579C25.0237 2.19526 24.5523 2 24 2L4 2ZM32 8C32 8.82843 31.7071 9.53553 31.1213 10.1213C30.5355 10.7071 29.8284 11 29 11L29 5C29.8284 5 30.5355 5.29289 31.1213 5.87868C31.7071 6.46447 32 7.17157 32 8Z" fill-rule="nonzero" transform="matrix(1 0 0 1 0 8)" fill="rgb(255, 59, 48)"/>
	</g>
</svg>
