<?xml version="1.0" encoding="utf-8" ?>
<svg xmlns="http://www.w3.org/2000/svg" xmlns:xlink="http://www.w3.org/1999/xlink" width="20" height="20" viewBox="0 0 20 20">
	<defs>
		<clipPath id="clipPath3629089240">
			<path d="M0 0L20 0L20 20L0 20L0 0Z" fill-rule="nonzero" transform="matrix(1 0 0 1 0 0)"/>
		</clipPath>
	</defs>
	<g clip-path="url(#clipPath3629089240)">
		<rect width="15.625" height="8.75" rx="1.7851562" ry="1.7851562" stroke-width="1.25" transform="matrix(1 0 0 1 1.25 5.625)" stroke="rgb(239, 68, 68)" fill="transparent"/>
		<rect width="1" height="4" rx="0.15625" ry="0.15625" transform="matrix(1 0 0 1 3.35938 8)" fill="rgb(239, 68, 68)"/>
		<rect width="1" height="4" rx="0.15625" ry="0.15625" stroke-width="1.25" transform="matrix(1 0 0 1 3.35938 8)" stroke="rgb(239, 68, 68)" fill="transparent"/>
		<path d="M0 -0.625C-0.345175 -0.625 -0.625 -0.345175 -0.625 0L-0.625 2.91641C-0.625 3.26158 -0.345175 3.54141 0 3.54141C0.345175 3.54141 0.625 3.26158 0.625 2.91641L0.625 0C0.625 -0.345175 0.345175 -0.625 0 -0.625Z" fill-rule="evenodd" transform="matrix(1 0 0 1 18.75 8.5418)" fill="rgb(239, 68, 68)"/>
	</g>
</svg>
