<?xml version="1.0" encoding="utf-8" ?>
<svg xmlns="http://www.w3.org/2000/svg" xmlns:xlink="http://www.w3.org/1999/xlink" width="24" height="24" viewBox="0 0 24 24">
	<defs>
		<clipPath id="clipPath5498730356">
			<path d="M0 0L24 0L24 24L0 24L0 0Z" fill-rule="nonzero" transform="matrix(1 0 0 1 0 0)"/>
		</clipPath>
	</defs>
	<g clip-path="url(#clipPath5498730356)">
		<defs>
			<clipPath id="clipPath5381921743">
				<path d="M0 0L24 0L24 24L0 24L0 0Z" fill-rule="nonzero" transform="matrix(1 0 0 1 0 0)"/>
			</clipPath>
		</defs>
		<g clip-path="url(#clipPath5381921743)">
			<path d="M1.067 12.4105L3.142 13.8875C4.204 14.6425 5.459 15.0275 6.714 15.0275C7.607 15.0275 8.501 14.8325 9.326 14.4375L22.279 8.73951C23.765 8.02951 24.412 6.23551 23.72 4.73951C23.026 3.24251 21.245 2.58751 19.744 3.27451L16.601 4.67651L9.982 0.590506C9.1 -0.0654938 7.932 -0.183494 6.93 0.279506L6.149 0.645506C5.538 0.932506 5.116 1.50251 5.02 2.17051C4.924 2.83951 5.168 3.50551 5.674 3.95351L9.878 7.67351L6.287 9.27551L3.23 8.15351C2.246 7.79451 1.146 8.11251 0.495 8.94451C0.103 9.44551 -0.0609996 10.0765 0.0330003 10.7205C0.132 11.3975 0.508 12.0125 1.067 12.4105ZM7 2.45651L7.776 2.09251C8.108 1.93851 8.497 1.97951 8.861 2.24351L14.392 5.66151L11.886 6.77951L7 2.45651ZM2.071 10.1785C2.169 10.0535 2.295 10.0095 2.405 10.0095C2.455 10.0095 5.979 11.2945 5.979 11.2945C6.224 11.3845 6.494 11.3755 6.731 11.2695L20.564 5.09851L20.577 5.09251C21.078 4.86151 21.673 5.08051 21.905 5.57951C22.139 6.08651 21.921 6.69351 21.445 6.92151L8.492 12.6195C7.135 13.2665 5.528 13.1295 4.301 12.2575L2.226 10.7815C2.112 10.7005 2.033 10.5705 2.013 10.4335C1.998 10.3315 2.018 10.2455 2.071 10.1785ZM24 19.9995C24 20.5525 23.552 20.9995 23 20.9995L1 20.9995C0.448 20.9995 0 20.5525 0 19.9995C0 19.4465 0.448 18.9995 1 18.9995L23 18.9995C23.552 18.9995 24 19.4465 24 19.9995Z" fill-rule="nonzero" transform="matrix(1 0 0 1 0 3.00049)" fill="rgb(255, 103, 31)"/>
		</g>
	</g>
</svg>
