<?xml version="1.0" encoding="utf-8" ?>
<svg xmlns="http://www.w3.org/2000/svg" xmlns:xlink="http://www.w3.org/1999/xlink" width="39" height="39" viewBox="0 0 39 39">
	<path d="M19.5 0C8.74781 0 0 8.74781 0 19.5C0 30.2522 8.74781 39 19.5 39C30.2522 39 39 30.2522 39 19.5C39 8.74781 30.2522 0 19.5 0ZM29.6484 12.9647L17.0484 27.9647C16.9086 28.1312 16.7405 28.2612 16.5441 28.3547C16.3478 28.4481 16.1409 28.4965 15.9234 28.5L15.8981 28.5C15.6855 28.4999 15.4821 28.4566 15.288 28.37C15.0938 28.2835 14.9256 28.1612 14.7834 28.0031L9.38344 22.0031C9.09461 21.6968 8.95883 21.3333 8.97609 20.9126C8.99336 20.4919 9.15847 20.1408 9.47144 19.8591C9.7844 19.5775 10.151 19.4502 10.5711 19.4772C10.9913 19.5042 11.3385 19.6775 11.6128 19.9969L15.8588 24.7144L27.3516 11.0353C27.6198 10.7252 27.9582 10.5539 28.3669 10.5213C28.7756 10.4888 29.1369 10.6043 29.4509 10.868C29.7648 11.1317 29.941 11.4677 29.9795 11.8759C30.0179 12.284 29.9076 12.647 29.6484 12.9647Z" fill-rule="nonzero" transform="matrix(1 0 0 1 0 0)" fill="rgb(52, 199, 89)"/>
</svg>
